<svg width="42" height="42" viewBox="0 0 42 42" fill="none" xmlns="http://www.w3.org/2000/svg">
<path fill-rule="evenodd" clip-rule="evenodd" d="M10.6406 39.8125H5.39063C4.57863 39.8125 3.79988 39.4905 3.22588 38.9147C2.94114 38.6308 2.71527 38.2933 2.56121 37.9219C2.40715 37.5504 2.32794 37.1522 2.32813 36.75V5.25C2.32813 4.438 2.65013 3.65925 3.22588 3.08525C3.50987 2.80051 3.84728 2.57464 4.21876 2.42058C4.59024 2.26653 4.98847 2.18732 5.39063 2.1875H24.6406C25.4526 2.1875 26.2314 2.5095 26.8054 3.08525C27.3811 3.65925 27.7031 4.438 27.7031 5.25V38.5C27.7031 38.8481 27.5648 39.1819 27.3187 39.4281C27.0726 39.6742 26.7387 39.8125 26.3906 39.8125H19.3906V29.75C19.3906 29.2859 19.2062 28.8407 18.8781 28.5126C18.5499 28.1844 18.1048 28 17.6406 28H12.3906C11.9265 28 11.4814 28.1844 11.1532 28.5126C10.825 28.8407 10.6406 29.2859 10.6406 29.75V39.8125ZM16.3281 20.125H13.7031V22.75H16.3281V20.125ZM21.5781 7.875H18.9531V10.5H21.5781V7.875ZM21.5781 14H18.9531V16.625H21.5781V14ZM21.5781 20.125H18.9531V22.75H21.5781V20.125ZM11.0781 7.875H8.45313V10.5H11.0781V7.875ZM11.0781 14H8.45313V16.625H11.0781V14ZM11.0781 20.125H8.45313V22.75H11.0781V20.125ZM16.3281 7.875H13.7031V10.5H16.3281V7.875ZM16.3281 14H13.7031V16.625H16.3281V14ZM29.4531 12.6875H36.8906C38.5811 12.6875 39.9531 14.0577 39.9531 15.75V36.75C39.9531 37.5622 39.6305 38.3412 39.0561 38.9155C38.4818 39.4898 37.7029 39.8125 36.8906 39.8125H29.1591C29.3481 39.4152 29.4531 38.969 29.4531 38.5V12.6875ZM35.5781 18.8125H32.9531V21.4375H35.5781V18.8125ZM35.5781 24.9375H32.9531V27.5625H35.5781V24.9375ZM35.5781 31.0625H32.9531V33.6875H35.5781V31.0625Z" fill="#2C2C2C"/>
</svg>
