<svg width="42" height="42" viewBox="0 0 42 42" fill="none" xmlns="http://www.w3.org/2000/svg">
<path fill-rule="evenodd" clip-rule="evenodd" d="M15.9203 37.2582H10.0712C7.7188 37.2582 5.8125 35.3503 5.8125 32.9995V21.2812C7.3242 22.5562 9.238 23.2555 11.2156 23.2557H11.2264C12.9701 23.2557 14.6565 22.7075 16.0564 21.7071C17.4997 22.7091 19.3673 23.2557 21.0182 23.2557C22.6705 23.2557 24.5258 22.7091 25.9691 21.7071C27.369 22.7075 29.1158 23.2557 30.81 23.2557C32.5042 23.2557 34.6382 22.5743 36.1264 21.3524V32.9995C36.1264 35.3503 34.22 37.2582 31.8677 37.2582H26.0186V29.0893C26.0186 28.0193 25.1514 27.1536 24.0829 27.1536H17.856C16.7875 27.1536 15.9203 28.0193 15.9203 29.0893V37.2582Z" fill="#2C2C2C"/>
<path fill-rule="evenodd" clip-rule="evenodd" d="M37.4267 13.6299C37.4298 13.6408 37.4328 13.6501 37.4359 13.6609C37.5707 14.0774 37.6435 14.5126 37.6466 14.9509V14.9741C37.6229 16.6158 37.0088 18.1941 35.9167 19.4202C35.2762 20.1391 34.4908 20.7144 33.6122 21.1083C32.7336 21.5023 31.7816 21.7059 30.8187 21.7059H30.8079C29.9203 21.7059 29.0413 21.531 28.2213 21.1911C27.4013 20.8512 26.6563 20.3531 26.0289 19.7252L25.9964 19.6927C24.6643 20.9837 22.8821 21.7057 21.027 21.7059H21.0162C19.1611 21.7057 17.3789 20.9837 16.0467 19.6927L16.0142 19.7252C15.3868 20.3531 14.6418 20.8512 13.8218 21.1911C13.0018 21.531 12.1228 21.7059 11.2352 21.7059H11.2243C10.2614 21.7059 9.30945 21.5023 8.43083 21.1083C7.55222 20.7144 6.76686 20.1391 6.12632 19.4202C5.03611 18.1984 4.42905 16.6312 4.35314 15.0113C4.35314 14.9912 4.35156 14.9695 4.35156 14.9494C4.35582 14.4903 4.43374 14.0349 4.58233 13.6006L6.75809 7.22646C7.13286 6.12695 8.16581 5.38672 9.32878 5.38672H32.7143C33.8773 5.38672 34.9102 6.12695 35.2865 7.22646C35.8997 9.02746 37.1092 12.5908 37.4267 13.6299Z" fill="#2C2C2C"/>
</svg>
