<svg width="34" height="34" viewBox="0 0 34 34" fill="none" xmlns="http://www.w3.org/2000/svg">
<path fill-rule="evenodd" clip-rule="evenodd" d="M30.8746 9.06807C30.8557 9.34105 30.7324 9.59626 30.5303 9.78067C30.3281 9.96509 30.0627 10.0645 29.7891 10.0583C29.5156 10.0521 29.2549 9.94076 29.0613 9.74738C28.8677 9.55399 28.7561 9.29346 28.7496 9.0199L28.8077 6.4614L26.2506 6.40332C25.9776 6.38445 25.7224 6.26112 25.538 6.05897C25.3536 5.85682 25.2542 5.59139 25.2604 5.31783C25.2666 5.04427 25.3779 4.78362 25.5713 4.59003C25.7647 4.39644 26.0252 4.28481 26.2988 4.27832L29.9198 4.3619C30.0592 4.36485 30.1966 4.39527 30.3243 4.45144C30.4519 4.50761 30.5672 4.58842 30.6635 4.68923C30.7599 4.79004 30.8354 4.90888 30.8857 5.03893C30.936 5.16897 30.9602 5.30767 30.9568 5.44707L30.8746 9.06807ZM8.25752 13.2402V30.4399C8.25752 31.4287 7.45711 32.2292 6.46827 32.2292H3.56269C3.32767 32.2293 3.09492 32.1832 2.87775 32.0933C2.66059 32.0035 2.46327 31.8717 2.29708 31.7055C2.1309 31.5393 1.99911 31.342 1.90926 31.1248C1.8194 30.9077 1.77325 30.6749 1.77344 30.4399V13.2402C1.77344 12.2527 2.57385 11.4509 3.56269 11.4509H6.46827C7.45711 11.4509 8.25752 12.2527 8.25752 13.2402ZM24.2404 21.9583V30.4399C24.2405 30.6749 24.1944 30.9077 24.1045 31.1248C24.0147 31.342 23.8829 31.5393 23.7167 31.7055C23.5505 31.8717 23.3532 32.0035 23.136 32.0933C22.9189 32.1832 22.6861 32.2293 22.4511 32.2292H19.5455C19.3105 32.2293 19.0778 32.1832 18.8606 32.0933C18.6434 32.0035 18.4461 31.8717 18.2799 31.7055C18.1137 31.5393 17.9819 31.342 17.8921 31.1248C17.8022 30.9077 17.7561 30.6749 17.7563 30.4399V21.9583C17.7561 21.7233 17.8022 21.4906 17.8921 21.2734C17.9819 21.0562 18.1137 20.8589 18.2799 20.6927C18.4461 20.5265 18.6434 20.3947 18.8606 20.3049C19.0778 20.215 19.3105 20.1689 19.5455 20.1691H22.4511C22.6861 20.1689 22.9189 20.215 23.136 20.3049C23.3532 20.3947 23.5505 20.5265 23.7167 20.6927C23.8829 20.8589 24.0147 21.0562 24.1045 21.2734C24.1944 21.4906 24.2405 21.7233 24.2404 21.9583ZM16.2489 17.5992V30.4399C16.2489 31.4287 15.4485 32.2292 14.4597 32.2292H11.5541C11.3191 32.2293 11.0863 32.1832 10.8692 32.0933C10.652 32.0035 10.4547 31.8717 10.2885 31.7055C10.1223 31.5393 9.99053 31.342 9.90067 31.1248C9.81082 30.9077 9.76467 30.6749 9.76485 30.4399V17.5992C9.76467 17.3642 9.81082 17.1315 9.90067 16.9143C9.99053 16.6971 10.1223 16.4998 10.2885 16.3336C10.4547 16.1674 10.652 16.0357 10.8692 15.9458C11.0863 15.856 11.3191 15.8098 11.5541 15.81H14.4597C15.4485 15.81 16.2489 16.6118 16.2489 17.5992ZM32.2318 17.5992V30.4399C32.2318 31.4287 31.4314 32.2292 30.4425 32.2292H27.5369C27.3019 32.2293 27.0692 32.1832 26.852 32.0933C26.6348 32.0035 26.4375 31.8717 26.2713 31.7055C26.1051 31.5393 25.9734 31.342 25.8835 31.1248C25.7937 30.9077 25.7475 30.6749 25.7477 30.4399V17.5992C25.7475 17.3642 25.7937 17.1315 25.8835 16.9143C25.9734 16.6971 26.1051 16.4998 26.2713 16.3336C26.4375 16.1674 26.6348 16.0357 26.852 15.9458C27.0692 15.856 27.3019 15.8098 27.5369 15.81H30.4425C31.4314 15.81 32.2318 16.6118 32.2318 17.5992Z" fill="white"/>
<path fill-rule="evenodd" clip-rule="evenodd" d="M3.47188 3.68338C3.24645 3.5143 3.09741 3.2626 3.05756 2.98364C3.01771 2.70468 3.0903 2.42131 3.25938 2.19588C3.42845 1.97044 3.68016 1.82141 3.95912 1.78156C4.23808 1.74171 4.52145 1.8143 4.74688 1.98338L13.1803 8.3088H17.1852C17.3462 8.3088 17.5051 8.34541 17.6499 8.41584C17.7947 8.48628 17.9216 8.5887 18.021 8.71538L21.261 12.8393L28.7693 5.00371C28.8658 4.90297 28.9813 4.82224 29.1091 4.76611C29.2368 4.70999 29.3744 4.67958 29.5139 4.67662C29.6534 4.67366 29.7921 4.69821 29.9221 4.74886C30.0522 4.79952 30.1709 4.87528 30.2717 4.97184C30.3724 5.06839 30.4531 5.18384 30.5093 5.3116C30.5654 5.43936 30.5958 5.57691 30.5988 5.71642C30.6017 5.85593 30.5772 5.99466 30.5265 6.12468C30.4759 6.2547 30.4001 6.37347 30.3035 6.47421L21.948 15.1924C21.8431 15.3028 21.7156 15.3892 21.5742 15.4458C21.4328 15.5023 21.2808 15.5277 21.1287 15.5202C20.9766 15.5127 20.8279 15.4724 20.6928 15.4021C20.5577 15.3319 20.4393 15.2333 20.3458 15.113L16.6695 10.4338H12.8261C12.5962 10.4341 12.3724 10.3595 12.1886 10.2213L3.47188 3.68338Z" fill="white"/>
</svg>
