<svg width="34" height="34" viewBox="0 0 34 34" fill="none" xmlns="http://www.w3.org/2000/svg">
<path fill-rule="evenodd" clip-rule="evenodd" d="M29.3932 28.3334C29.3932 29.3661 28.9824 30.3578 28.2528 31.0888C27.5215 31.8187 26.5306 32.2288 25.4974 32.2292H8.4974C7.46465 32.2292 6.47298 31.8184 5.74198 31.0888C5.01211 30.3575 4.602 29.3666 4.60156 28.3334V5.66671C4.60156 4.63396 5.0124 3.64229 5.74198 2.91129C6.47329 2.18142 7.46418 1.77131 8.4974 1.77087H20.6609C21.3182 1.77087 21.9486 2.03154 22.4133 2.49762L28.6665 8.75079C29.1326 9.21546 29.3932 9.84587 29.3932 10.5032V28.3334ZM17.7057 26.5625H11.3307C11.0489 26.5625 10.7787 26.4506 10.5794 26.2513C10.3802 26.0521 10.2682 25.7818 10.2682 25.5C10.2682 25.2182 10.3802 24.948 10.5794 24.7487C10.7787 24.5495 11.0489 24.4375 11.3307 24.4375H17.7057C17.9875 24.4375 18.2578 24.5495 18.457 24.7487C18.6563 24.948 18.7682 25.2182 18.7682 25.5C18.7682 25.7818 18.6563 26.0521 18.457 26.2513C18.2578 26.4506 17.9875 26.5625 17.7057 26.5625ZM22.6641 21.6042H11.3307C11.0489 21.6042 10.7787 21.4923 10.5794 21.293C10.3802 21.0938 10.2682 20.8235 10.2682 20.5417C10.2682 20.2599 10.3802 19.9897 10.5794 19.7904C10.7787 19.5912 11.0489 19.4792 11.3307 19.4792H22.6641C22.9459 19.4792 23.2161 19.5912 23.4154 19.7904C23.6146 19.9897 23.7266 20.2599 23.7266 20.5417C23.7266 20.8235 23.6146 21.0938 23.4154 21.293C23.2161 21.4923 22.9459 21.6042 22.6641 21.6042ZM22.6641 16.6459H11.3307C11.0489 16.6459 10.7787 16.5339 10.5794 16.3347C10.3802 16.1354 10.2682 15.8652 10.2682 15.5834C10.2682 15.3016 10.3802 15.0313 10.5794 14.8321C10.7787 14.6328 11.0489 14.5209 11.3307 14.5209C11.6125 14.5209 22.6641 14.5209 22.6641 14.5209C22.9459 14.5209 23.2161 14.6328 23.4154 14.8321C23.6146 15.0313 23.7266 15.3016 23.7266 15.5834C23.7266 15.8652 23.6146 16.1354 23.4154 16.3347C23.2161 16.5339 22.9459 16.6459 22.6641 16.6459Z" fill="white"/>
</svg>
