<svg width="102" height="26" viewBox="0 0 102 26" fill="none" xmlns="http://www.w3.org/2000/svg">
<g clip-path="url(#clip0_562_85856)">
<path fill-rule="evenodd" clip-rule="evenodd" d="M99.4117 24.8353H95.6177C95.1629 24.8533 94.7089 24.777 94.2849 24.6111C93.8609 24.4451 93.4753 24.1932 93.1519 23.8709C92.8292 23.5486 92.5757 23.163 92.4083 22.738C92.2401 22.3131 92.1617 21.8579 92.1771 21.401V5.49133H94.8196V20.1099C94.8196 20.819 94.9217 21.5401 95.3726 21.7986C95.7974 21.9517 96.2499 22.0068 96.6985 21.9597H99.1205V5.49133H101.762V24.8353H99.4117ZM99.4593 3.00502L98.148 3.04508H95.8328L94.5292 3.01182C94.4831 2.99573 94.4355 2.98805 94.3871 2.98914C93.1319 2.84853 93.2725 1.42281 93.2725 0.576904H100.667C100.668 1.44549 100.754 2.87499 99.4593 3.00502ZM85.5723 24.8353H82.3821C81.9274 24.8528 81.4749 24.7761 81.0509 24.6101C80.6276 24.4441 80.2428 24.1924 79.9201 23.8705C79.5975 23.5486 79.3448 23.1635 79.1773 22.7392C79.0091 22.3148 78.93 21.8604 78.9446 21.404V8.94148C78.93 8.48503 79.0091 8.03039 79.1766 7.60588C79.344 7.18138 79.5975 6.79609 79.9194 6.47405C80.242 6.15201 80.6269 5.90009 81.0509 5.73401C81.4742 5.56794 81.9274 5.49124 82.3821 5.50872H85.5723C86.0263 5.49103 86.4803 5.56756 86.9036 5.73355C87.3276 5.89953 87.7125 6.15141 88.0351 6.47348C88.3577 6.79555 88.6112 7.1809 88.7787 7.60551C88.9469 8.03013 89.0253 8.48488 89.0107 8.94148V21.4048C89.0253 21.8612 88.9461 22.3158 88.7779 22.7401C88.6105 23.1644 88.3569 23.5495 88.0343 23.8713C87.7117 24.1932 87.3268 24.4448 86.9036 24.6107C86.4795 24.7765 86.0263 24.853 85.5723 24.8353ZM86.3697 10.2123C86.3697 9.5047 86.2675 8.7827 85.8166 8.52421C85.3918 8.37173 84.9378 8.31727 84.4892 8.36466H83.4652C83.0166 8.31727 82.5634 8.37181 82.1386 8.52421C81.6869 8.7827 81.5855 9.50693 81.5855 10.2123V20.1054C81.5855 20.8137 81.6862 21.5348 82.1386 21.7941C82.5634 21.945 83.0166 21.9993 83.4652 21.9529H84.4892C84.9378 21.9994 85.391 21.9451 85.8166 21.7941C86.2683 21.5348 86.3697 20.8114 86.3697 20.1054V10.2123ZM72.6444 17.003H69.144V24.8361H66.5018V5.5072H72.6444C73.0988 5.48962 73.552 5.56624 73.9757 5.73227C74.3995 5.8983 74.7846 6.15019 75.1071 6.47225C75.4297 6.79431 75.6827 7.17962 75.8505 7.60418C76.0182 8.02875 76.097 8.48342 76.0821 8.93995V13.5694C76.0972 14.026 76.0184 14.4807 75.8507 14.9054C75.683 15.3301 75.43 15.7155 75.1074 16.0376C74.7849 16.3598 74.3997 16.6117 73.976 16.7778C73.5522 16.9439 73.0989 17.0205 72.6444 17.003ZM73.4399 10.2145C73.4399 9.5047 73.3369 8.78347 72.8883 8.52644C72.4641 8.37296 72.0109 8.31788 71.5626 8.36543H69.144V14.1394H71.5604C72.0094 14.1868 72.4632 14.132 72.8883 13.9791C73.3399 13.7221 73.4399 13.0002 73.4399 12.2942V10.2153V10.2145ZM60.3541 24.8361H57.7105V8.36466H54.238V5.49209H63.8273V8.36466H60.3541V24.8353V24.8361ZM48.9665 24.8361H46.2897C45.8355 24.8534 45.3826 24.7767 44.9591 24.6107C44.5357 24.4446 44.1508 24.1929 43.8285 23.871C43.5061 23.5491 43.2532 23.1641 43.0854 22.7398C42.9177 22.3155 42.8387 21.8611 42.8534 21.4048V8.94524C42.8389 8.48903 42.9179 8.03473 43.0857 7.61055C43.2535 7.18636 43.5064 6.8014 43.8287 6.47961C44.1511 6.15782 44.5359 5.9061 44.9593 5.74011C45.3826 5.57412 45.8356 5.49741 46.2897 5.51476H48.9665C49.4207 5.49741 49.8735 5.57412 50.2969 5.74011C50.7203 5.9061 51.1051 6.15782 51.4275 6.47961C51.7498 6.8014 52.0027 7.18636 52.1705 7.61055C52.3383 8.03473 52.4174 8.48903 52.4028 8.94524V10.5577H49.7629V10.2123C49.7629 9.50393 49.6583 8.7827 49.2104 8.52421C48.7862 8.37242 48.3334 8.31819 47.8856 8.36543H47.3714C46.9238 8.31811 46.4713 8.37234 46.0473 8.52421C45.5957 8.7827 45.4956 9.50693 45.4956 10.2123V20.1068C45.4956 20.8151 45.5949 21.5356 46.0473 21.7949C46.4716 21.9454 46.9238 21.9994 47.3714 21.9529H47.8856C48.3333 21.9993 48.7859 21.9453 49.2104 21.7949C49.662 21.5356 49.7629 20.8122 49.7629 20.1068V19.7856H52.4028V21.404C52.4175 21.8603 52.3385 22.3148 52.1707 22.739C52.003 23.1633 51.7501 23.5484 51.4278 23.8702C51.1054 24.1921 50.7206 24.4439 50.2971 24.6099C49.8737 24.776 49.4208 24.8526 48.9665 24.8353V24.8361ZM36.5837 16.9092H32.293V24.8036H29.6343V5.48831H32.293V14.0305H36.5837V5.48831H39.2244V24.8028H36.5837V16.9085V16.9092ZM22.563 24.8361H19.3713C18.9171 24.8534 18.4641 24.7767 18.0407 24.6107C17.6173 24.4446 17.2324 24.1929 16.9101 23.871C16.5877 23.5491 16.3348 23.1641 16.167 22.7398C15.9993 22.3155 15.9203 21.8611 15.935 21.4048V8.94148C15.9201 8.48511 15.9989 8.03052 16.1666 7.60607C16.3343 7.18161 16.5871 6.79637 16.9095 6.47434C17.2319 6.1523 17.6168 5.90038 18.0403 5.73425C18.4639 5.56812 18.9169 5.49135 19.3713 5.50872H22.563C23.0175 5.49103 23.4709 5.56756 23.8947 5.73355C24.3185 5.89953 24.7037 6.15141 25.0262 6.47348C25.3489 6.79555 25.602 7.1809 25.7698 7.60551C25.9375 8.03013 26.0165 8.48488 26.0015 8.94148V21.4048C26.0161 21.8612 25.937 22.3158 25.7691 22.7401C25.6011 23.1644 25.348 23.5495 25.0254 23.8713C24.7028 24.1932 24.3178 24.4448 23.8941 24.6107C23.4705 24.7765 23.0173 24.853 22.563 24.8353V24.8361ZM23.3602 10.2145C23.3602 9.5047 23.257 8.78347 22.8068 8.52644C22.3827 8.37296 21.9295 8.31796 21.4812 8.36543H20.4455C19.9972 8.31788 19.544 8.37288 19.1199 8.52644C18.6682 8.78347 18.5666 9.5047 18.5666 10.2145V20.1054C18.5666 20.8145 18.6682 21.5356 19.1199 21.7934C19.5444 21.9453 19.9972 22 20.4455 21.9536H21.4812C21.9295 22 22.3824 21.9452 22.8068 21.7934C23.2585 21.5356 23.3602 20.8106 23.3602 20.1054V10.2137V10.2145ZM2.12272 21.9604H2.3064V8.92635C2.29113 8.46936 2.36988 8.01405 2.53772 7.58895C2.70554 7.16385 2.95886 6.77807 3.28183 6.45572C3.60481 6.13335 3.9905 5.88134 4.41482 5.71541C4.83914 5.54948 5.29298 5.4732 5.74798 5.49133H11.8927V21.9597H12.1005C13.7663 21.9597 14.5514 23.2357 14.5175 24.8323H-0.295871C-0.328992 23.2357 0.456883 21.9597 2.12272 21.9597V21.9604ZM4.94027 21.9604H9.24828V8.36466H6.81839C6.3697 8.31681 5.91605 8.37135 5.49129 8.52421C5.03963 8.7827 4.93801 9.50693 4.93801 10.2137V21.9597L4.94027 21.9604Z" fill="#00AEEF"/>
</g>
<defs>
<clipPath id="clip0_562_85856">
<rect width="102" height="26" fill="white"/>
</clipPath>
</defs>
</svg>
