<svg width="42" height="42" viewBox="0 0 42 42" fill="none" xmlns="http://www.w3.org/2000/svg">
<path fill-rule="evenodd" clip-rule="evenodd" d="M15.0097 7.31513C15.7818 6.49889 16.7129 5.84949 17.7457 5.40698C18.7784 4.96447 19.8909 4.73824 21.0144 4.74224C22.1379 4.74624 23.2488 4.98038 24.2783 5.43023C25.3079 5.88008 26.2344 6.53609 27.0006 7.35781L38.4805 20.6616C38.6289 20.8335 38.7248 21.0444 38.7568 21.2693C38.7889 21.4941 38.7556 21.7234 38.6611 21.9298C38.5666 22.1363 38.4147 22.3113 38.2236 22.434C38.0325 22.5567 37.8102 22.6219 37.5831 22.6219H34.9595L32.4095 33.17C31.8357 35.9346 29.425 37.9357 26.6088 37.9357H14.7703C11.9541 37.9357 9.54393 35.9346 8.96955 33.17L6.41951 22.6225H4.38873C4.16163 22.6225 3.93931 22.5573 3.74821 22.4346C3.5571 22.3119 3.40525 22.1369 3.31072 21.9304C3.21619 21.724 3.18295 21.4947 3.21496 21.2698C3.24697 21.045 3.34289 20.8341 3.49129 20.6622L14.9712 7.35781C14.9837 7.34327 14.9965 7.32904 15.0097 7.31513ZM15.0583 24.3023C15.0583 21.0285 17.7121 18.3748 20.9859 18.3748C24.2597 18.3748 26.9135 21.0285 26.9135 24.3023C26.9135 27.5761 24.2597 30.2299 20.9859 30.2299C17.7121 30.2299 15.0583 27.5761 15.0583 24.3023Z" fill="#2C2C2C"/>
</svg>
