<svg width="22" height="22" viewBox="0 0 22 22" fill="none" xmlns="http://www.w3.org/2000/svg">
<path d="M9.625 8.59375C9.62301 9.65965 9.95478 10.6994 10.5738 11.5672L8.49406 13.6503C8.42851 13.7136 8.34113 13.7493 8.25 13.75H7.21875V14.7813C7.21848 14.8723 7.18217 14.9596 7.11777 15.024C7.05336 15.0884 6.96608 15.1247 6.875 15.125H5.84375V16.1563C5.84348 16.2473 5.80717 16.3346 5.74277 16.399C5.67836 16.4634 5.59108 16.4997 5.5 16.5H3.09375C3.00267 16.4997 2.91539 16.4634 2.85098 16.399C2.78658 16.3346 2.75027 16.2473 2.75 16.1563V13.75C2.75068 13.6589 2.78637 13.5715 2.84969 13.5059L7.77906 8.58C7.63559 8.1405 7.5625 7.68108 7.5625 7.21875C7.56193 6.41776 7.77681 5.63136 8.18463 4.94196C8.59244 4.25256 9.17817 3.68554 9.88044 3.30031C10.5827 2.91508 11.3757 2.72583 12.1762 2.75238C12.9768 2.77894 13.7554 3.02033 14.4306 3.45125C13.1273 3.54065 11.9065 4.12117 11.0146 5.07563C10.1226 6.03009 9.62603 7.2874 9.625 8.59375ZM18.0132 5.51616C17.8663 6.06611 17.5995 6.57669 17.2317 7.01118C16.864 7.44567 16.4045 7.79326 15.8864 8.02897C15.7329 8.24095 15.5221 8.4048 15.2788 8.50132C15.0355 8.59785 14.7698 8.62305 14.5127 8.57399C14.2556 8.52492 14.0178 8.40362 13.8271 8.22428C13.6365 8.04495 13.5009 7.815 13.4362 7.56138C13.3715 7.30776 13.3804 7.04095 13.4619 6.79222C13.5434 6.54348 13.694 6.32311 13.8962 6.15691C14.0985 5.99071 14.3438 5.88556 14.6036 5.85378C14.8634 5.822 15.1269 5.86491 15.3632 5.97747C15.6013 5.77472 15.7942 5.52427 15.9293 5.24229C16.0645 4.96032 16.139 4.65311 16.148 4.34053C15.0822 3.99705 13.9262 4.06649 12.9092 4.53509C11.8922 5.00369 11.0883 5.83725 10.6569 6.87059C10.2255 7.90393 10.198 9.06164 10.5798 10.1143C10.9617 11.167 11.7251 12.0377 12.7188 12.5541V19.25C12.7188 19.3412 12.755 19.4286 12.8195 19.493L14.5382 21.2118C14.6027 21.2762 14.6901 21.3124 14.7812 21.3124C14.8724 21.3124 14.9598 21.2762 15.0243 21.2118L16.743 19.493C16.8075 19.4286 16.8437 19.3412 16.8437 19.25C16.8437 19.1589 16.8075 19.0714 16.743 19.007L15.9548 18.2188L16.743 17.4305C16.8075 17.3661 16.8437 17.2787 16.8437 17.1875C16.8437 17.0964 16.8075 17.0089 16.743 16.9445L15.9548 16.1563L16.743 15.368C16.8075 15.3036 16.8437 15.2162 16.8438 15.125V12.5541C17.4586 12.2355 17.9907 11.7781 18.3979 11.2181C18.8051 10.6581 19.0762 10.0108 19.1897 9.32777C19.3032 8.64471 19.256 7.9446 19.0517 7.28297C18.8475 6.62135 18.4919 6.01641 18.0132 5.51616ZM14.7812 1.375C15.9187 1.375 16.8438 2.60872 16.8438 4.125C16.8438 5.64128 15.9187 6.875 14.7812 6.875C14.6901 6.875 14.6026 6.91122 14.5382 6.97568C14.4737 7.04015 14.4375 7.12758 14.4375 7.21875C14.4375 7.30992 14.4737 7.39735 14.5382 7.46182C14.6026 7.52628 14.6901 7.5625 14.7812 7.5625C16.2975 7.5625 17.5312 6.02044 17.5312 4.125C17.5312 2.22956 16.2975 0.6875 14.7812 0.6875C14.3201 0.705318 13.8719 0.844708 13.482 1.09155C13.0921 1.33839 12.7743 1.68391 12.561 2.09309C12.81 2.11878 13.0568 2.16267 13.2993 2.22441C13.4606 1.97476 13.6792 1.76736 13.9371 1.61958C14.1949 1.4718 14.4844 1.38793 14.7812 1.375Z" fill="white"/>
</svg>
