<svg width="42" height="42" viewBox="0 0 42 42" fill="none" xmlns="http://www.w3.org/2000/svg">
<path fill-rule="evenodd" clip-rule="evenodd" d="M30.3001 4.16703C30.3003 3.88693 30.2373 3.6104 30.1157 3.35806C29.9941 3.10571 29.8172 2.88406 29.598 2.70963C29.3788 2.5352 29.1231 2.41248 28.8499 2.35063C28.5768 2.28878 28.2931 2.28939 28.0202 2.35241L5.68636 7.50781C5.27675 7.60239 4.91123 7.83286 4.64932 8.16169C4.38741 8.49051 4.24454 8.89832 4.24397 9.31871V37.4277H3.31339C3.06659 37.4277 2.82989 37.5258 2.65537 37.7003C2.48086 37.8748 2.38281 38.1115 2.38281 38.3583C2.38281 38.6051 2.48086 38.8418 2.65537 39.0163C2.82989 39.1908 3.06659 39.2889 3.31339 39.2889H13.5497V33.7054C13.5497 33.2118 13.7458 32.7384 14.0949 32.3894C14.4439 32.0403 14.9173 31.8443 15.4109 31.8443H19.1332C19.6268 31.8443 20.1002 32.0403 20.4492 32.3894C20.7983 32.7384 20.9944 33.2118 20.9944 33.7054V39.2889H30.3001V4.16703ZM10.758 13.2327C10.5112 13.2327 10.2745 13.3308 10.1 13.5053C9.92547 13.6798 9.82743 13.9165 9.82743 14.1633V16.0244C9.82743 16.2713 9.92547 16.5079 10.1 16.6825C10.2745 16.857 10.5112 16.955 10.758 16.955H12.6192C12.866 16.955 13.1027 16.857 13.2772 16.6825C13.4517 16.5079 13.5497 16.2713 13.5497 16.0244V14.1633C13.5497 13.9165 13.4517 13.6798 13.2772 13.5053C13.1027 13.3308 12.866 13.2327 12.6192 13.2327H10.758ZM9.82743 19.7468C9.82743 19.5 9.92547 19.2633 10.1 19.0887C10.2745 18.9142 10.5112 18.8162 10.758 18.8162H12.6192C12.866 18.8162 13.1027 18.9142 13.2772 19.0887C13.4517 19.2633 13.5497 19.5 13.5497 19.7468V21.6079C13.5497 21.8547 13.4517 22.0914 13.2772 22.2659C13.1027 22.4404 12.866 22.5385 12.6192 22.5385H10.758C10.5112 22.5385 10.2745 22.4404 10.1 22.2659C9.92547 22.0914 9.82743 21.8547 9.82743 21.6079V19.7468ZM10.758 24.3996C10.5112 24.3996 10.2745 24.4977 10.1 24.6722C9.92547 24.8467 9.82743 25.0834 9.82743 25.3302V27.1914C9.82743 27.4382 9.92547 27.6749 10.1 27.8494C10.2745 28.0239 10.5112 28.1219 10.758 28.1219H12.6192C12.866 28.1219 13.1027 28.0239 13.2772 27.8494C13.4517 27.6749 13.5497 27.4382 13.5497 27.1914V25.3302C13.5497 25.0834 13.4517 24.8467 13.2772 24.6722C13.1027 24.4977 12.866 24.3996 12.6192 24.3996H10.758ZM15.4109 14.1633C15.4109 13.9165 15.5089 13.6798 15.6834 13.5053C15.858 13.3308 16.0947 13.2327 16.3415 13.2327H18.2026C18.4494 13.2327 18.6861 13.3308 18.8606 13.5053C19.0352 13.6798 19.1332 13.9165 19.1332 14.1633V16.0244C19.1332 16.2713 19.0352 16.5079 18.8606 16.6825C18.6861 16.857 18.4494 16.955 18.2026 16.955H16.3415C16.0947 16.955 15.858 16.857 15.6834 16.6825C15.5089 16.5079 15.4109 16.2713 15.4109 16.0244V14.1633ZM16.3415 18.8162C16.0947 18.8162 15.858 18.9142 15.6834 19.0887C15.5089 19.2633 15.4109 19.5 15.4109 19.7468V21.6079C15.4109 21.8547 15.5089 22.0914 15.6834 22.2659C15.858 22.4404 16.0947 22.5385 16.3415 22.5385H18.2026C18.4494 22.5385 18.6861 22.4404 18.8606 22.2659C19.0352 22.0914 19.1332 21.8547 19.1332 21.6079V19.7468C19.1332 19.5 19.0352 19.2633 18.8606 19.0887C18.6861 18.9142 18.4494 18.8162 18.2026 18.8162H16.3415ZM15.4109 25.3302C15.4109 25.0834 15.5089 24.8467 15.6834 24.6722C15.858 24.4977 16.0947 24.3996 16.3415 24.3996H18.2026C18.4494 24.3996 18.6861 24.4977 18.8606 24.6722C19.0352 24.8467 19.1332 25.0834 19.1332 25.3302V27.1914C19.1332 27.4382 19.0352 27.6749 18.8606 27.8494C18.6861 28.0239 18.4494 28.1219 18.2026 28.1219H16.3415C16.0947 28.1219 15.858 28.0239 15.6834 27.8494C15.5089 27.6749 15.4109 27.4382 15.4109 27.1914V25.3302ZM21.9249 13.2327C21.6781 13.2327 21.4414 13.3308 21.2669 13.5053C21.0924 13.6798 20.9944 13.9165 20.9944 14.1633V16.0244C20.9944 16.2713 21.0924 16.5079 21.2669 16.6825C21.4414 16.857 21.6781 16.955 21.9249 16.955H23.7861C24.0329 16.955 24.2696 16.857 24.4441 16.6825C24.6186 16.5079 24.7167 16.2713 24.7167 16.0244V14.1633C24.7167 13.9165 24.6186 13.6798 24.4441 13.5053C24.2696 13.3308 24.0329 13.2327 23.7861 13.2327H21.9249ZM20.9944 19.7468C20.9944 19.5 21.0924 19.2633 21.2669 19.0887C21.4414 18.9142 21.6781 18.8162 21.9249 18.8162H23.7861C24.0329 18.8162 24.2696 18.9142 24.4441 19.0887C24.6186 19.2633 24.7167 19.5 24.7167 19.7468V21.6079C24.7167 21.8547 24.6186 22.0914 24.4441 22.2659C24.2696 22.4404 24.0329 22.5385 23.7861 22.5385H21.9249C21.6781 22.5385 21.4414 22.4404 21.2669 22.2659C21.0924 22.0914 20.9944 21.8547 20.9944 21.6079V19.7468ZM21.9249 24.3996C21.6781 24.3996 21.4414 24.4977 21.2669 24.6722C21.0924 24.8467 20.9944 25.0834 20.9944 25.3302V27.1914C20.9944 27.4382 21.0924 27.6749 21.2669 27.8494C21.4414 28.0239 21.6781 28.1219 21.9249 28.1219H23.7861C24.0329 28.1219 24.2696 28.0239 24.4441 27.8494C24.6186 27.6749 24.7167 27.4382 24.7167 27.1914V25.3302C24.7167 25.0834 24.6186 24.8467 24.4441 24.6722C24.2696 24.4977 24.0329 24.3996 23.7861 24.3996H21.9249Z" fill="#2C2C2C"/>
<path d="M32.1641 8.9375V39.2911H38.6781C38.9249 39.2911 39.1616 39.193 39.3361 39.0185C39.5106 38.844 39.6087 38.6073 39.6087 38.3605C39.6087 38.1137 39.5106 37.877 39.3361 37.7025C39.1616 37.5279 38.9249 37.4299 38.6781 37.4299H37.7475V12.8794C37.7473 12.5339 37.651 12.1952 37.4692 11.9013C37.2874 11.6075 37.0274 11.37 36.7183 11.2156L32.1641 8.9375Z" fill="#2C2C2C"/>
</svg>
