<svg width="34" height="34" viewBox="0 0 34 34" fill="none" xmlns="http://www.w3.org/2000/svg">
<path d="M22.7215 10.6251C21.6006 5.41884 19.2099 2.12509 16.9989 2.12509C14.7878 2.12509 12.3972 5.41884 11.2763 10.6251H22.7215ZM10.6239 17.0001C10.6236 18.4215 10.7184 19.8413 10.9076 21.2501H23.0902C23.2794 19.8413 23.3741 18.4215 23.3739 17.0001C23.3741 15.5787 23.2794 14.1588 23.0902 12.7501H10.9076C10.7184 14.1588 10.6236 15.5787 10.6239 17.0001ZM11.2763 23.3751C12.3972 28.5813 14.7878 31.8751 16.9989 31.8751C19.2099 31.8751 21.6006 28.5813 22.7215 23.3751H11.2763ZM24.8975 10.6251H31.5913C30.5855 8.33621 29.0573 6.31489 27.1293 4.72326C25.2013 3.13162 22.9271 2.01398 20.4892 1.45996C22.5048 3.23327 24.0858 6.51215 24.8975 10.6251ZM32.3552 12.7501H25.2364C25.4117 14.16 25.4994 15.5794 25.4989 17.0001C25.499 18.4208 25.411 19.8402 25.2354 21.2501H32.3541C33.129 18.4697 33.13 15.5304 32.3552 12.7501ZM20.4892 32.5402C22.9275 31.9865 25.2021 30.869 27.1305 29.2773C29.0589 27.6857 30.5874 25.6642 31.5934 23.3751H24.8996C24.0858 27.488 22.5048 30.7669 20.4892 32.5402ZM9.10026 23.3751H2.40651C3.41248 25.6642 4.94097 27.6857 6.86937 29.2773C8.79776 30.869 11.0724 31.9865 13.5107 32.5402C11.493 30.7669 9.91201 27.488 9.10026 23.3751ZM13.5086 1.45996C11.0702 2.01368 8.79564 3.13119 6.86724 4.72284C4.93885 6.31449 3.41035 8.33596 2.40439 10.6251H9.09814C9.91201 6.51215 11.493 3.23327 13.5086 1.45996ZM8.49889 17.0001C8.49875 15.5793 8.58675 14.1599 8.76239 12.7501H1.64364C0.868788 15.5304 0.868788 18.4697 1.64364 21.2501H8.76239C8.58675 19.8402 8.49875 18.4208 8.49889 17.0001Z" fill="white"/>
</svg>
