<svg width="22" height="22" viewBox="0 0 22 22" fill="none" xmlns="http://www.w3.org/2000/svg">
<path d="M18.2617 4.67316L12.4038 1.46116C12.2981 1.40506 12.1797 1.37714 12.0601 1.38009C11.9404 1.38305 11.8235 1.41677 11.7207 1.47801C11.6179 1.53925 11.5326 1.62595 11.473 1.72975C11.4134 1.83355 11.3815 1.95095 11.3805 2.07063V3.0675C6.56938 3.07369 3.53784 6.36475 3.29688 9.16769L3.32713 10.0934C5.37691 7.78169 8.53837 6.80922 11.0976 6.92541V8.23166C11.0986 8.34593 11.1278 8.45819 11.1824 8.55855C11.2371 8.65891 11.3156 8.74428 11.411 8.80714C11.5065 8.87 11.6159 8.90843 11.7297 8.91903C11.8435 8.92964 11.9581 8.91209 12.0635 8.86794L18.1809 6.24204C18.3299 6.17629 18.4577 6.07047 18.5502 5.93636C18.6426 5.80225 18.6959 5.64512 18.7043 5.48247C18.7127 5.31982 18.6757 5.15804 18.5976 5.01514C18.5194 4.87225 18.4032 4.75386 18.2617 4.67316Z" fill="white"/>
<path d="M4.03568 9.36094L3.23438 10.0292C3.53429 10.8801 3.99 12.5621 4.62762 13.2004C4.67601 13.2459 5.06023 13.2763 5.1257 13.2876C5.19117 13.299 5.25853 13.2909 5.31946 13.2644C5.38038 13.2379 5.43219 13.1941 5.46845 13.1384C5.50472 13.0827 5.52385 13.0176 5.52349 12.9512C5.4458 11.5418 5.6709 8.60263 6.03872 7.79688C5.95553 7.84156 5.87108 7.88923 5.78537 7.93988C5.13881 8.32977 4.54989 8.80808 4.03568 9.36094ZM3.73874 17.3268L9.59658 20.5384C9.70228 20.5945 9.82065 20.6224 9.94027 20.6195C10.0599 20.6166 10.1767 20.5829 10.2796 20.5217C10.3824 20.4605 10.4677 20.3738 10.5273 20.2701C10.5869 20.1663 10.6188 20.049 10.6199 19.9293V18.9324C15.4311 18.9262 18.4626 15.6352 18.7036 12.8322L18.6733 11.9065C16.6235 14.2182 13.4621 15.1907 10.9028 15.0745V13.7683C10.9018 13.654 10.8726 13.5417 10.818 13.4414C10.7633 13.341 10.6848 13.2557 10.5894 13.1928C10.4939 13.1299 10.3845 13.0915 10.2707 13.0809C10.1569 13.0703 10.0423 13.0878 9.9369 13.132L3.81952 15.7579C3.67052 15.8236 3.54269 15.9295 3.45027 16.0636C3.35786 16.1977 3.3045 16.3548 3.29612 16.5175C3.28775 16.6801 3.32469 16.8419 3.40284 16.9848C3.48099 17.1277 3.59727 17.2461 3.73874 17.3268Z" fill="white"/>
<path d="M18.1195 12.618L18.7665 11.9709C18.443 11.0003 17.7806 9.18172 16.998 8.50931C16.9386 8.46134 16.8641 8.42939 16.7838 8.4174C16.7034 8.40541 16.6207 8.41391 16.5459 8.44186C16.4712 8.4698 16.4076 8.51596 16.3631 8.57461C16.3185 8.63327 16.2951 8.70184 16.2955 8.77184C16.3909 10.2565 15.9827 13.3869 15.5312 14.2356C15.6334 14.1886 15.737 14.1384 15.8422 14.085C16.6358 13.6743 17.4883 13.2004 18.1195 12.618Z" fill="white"/>
</svg>
