<svg width="22" height="22" viewBox="0 0 22 22" fill="none" xmlns="http://www.w3.org/2000/svg">
<path d="M21.3139 11.6875C21.3135 11.8697 21.241 12.0444 21.1121 12.1732C20.9833 12.3021 20.8086 12.3746 20.6264 12.375C20.5303 12.3751 20.4352 12.3549 20.3473 12.316C20.2595 12.277 20.1807 12.2201 20.1163 12.1488C19.8337 11.836 19.0444 11.0983 17.82 10.9979C16.214 10.8591 15.1429 11.9357 14.9449 12.1529C14.883 12.2201 14.8085 12.2742 14.7255 12.3122C14.6425 12.3502 14.5528 12.3713 14.4616 12.3743C14.3699 12.3805 14.2779 12.3668 14.192 12.3342C14.1061 12.3016 14.0283 12.2508 13.9638 12.1853C13.3287 11.6005 12.5387 11.211 11.6882 11.0632V18.5632C11.6882 19.7003 10.7628 20.6257 9.62569 20.6257C8.48856 20.6257 7.56319 19.7003 7.56319 18.5632V17.8757C7.56319 17.6933 7.63562 17.5185 7.76455 17.3896C7.89348 17.2606 8.06835 17.1882 8.25069 17.1882C8.43302 17.1882 8.60789 17.2606 8.73682 17.3896C8.86576 17.5185 8.93819 17.6933 8.93819 17.8757V18.5632C8.94611 18.7402 9.022 18.9073 9.15006 19.0298C9.27813 19.1523 9.44849 19.2206 9.62569 19.2206C9.80288 19.2206 9.97325 19.1523 10.1013 19.0298C10.2294 18.9073 10.3053 18.7402 10.3132 18.5632V11.066C9.691 11.1712 8.811 11.4489 8.03687 12.1866C7.97156 12.2507 7.89366 12.3005 7.8081 12.3329C7.72254 12.3654 7.63119 12.3797 7.53981 12.375C7.44861 12.3719 7.35893 12.3508 7.27597 12.3128C7.193 12.2748 7.11841 12.2207 7.0565 12.1536C6.85781 11.9377 5.79081 10.8563 4.18137 10.9986C2.95694 11.099 2.16769 11.8367 1.88513 12.1495C1.7918 12.2523 1.66958 12.3244 1.53452 12.3564C1.39945 12.3885 1.25785 12.3789 1.12832 12.329C0.998785 12.2791 0.887367 12.1912 0.808695 12.0768C0.730024 11.9625 0.687776 11.827 0.6875 11.6882C0.688875 6.00119 5.31506 1.375 11.0014 1.375C16.6877 1.375 21.3139 6.00119 21.3139 11.6875Z" fill="white"/>
</svg>
