<?xml version="1.0" standalone="no"?>
<!DOCTYPE svg PUBLIC "-//W3C//DTD SVG 20010904//EN"
 "http://www.w3.org/TR/2001/REC-SVG-20010904/DTD/svg10.dtd">
<svg version="1.0" xmlns="http://www.w3.org/2000/svg"
 width="700.000000pt" height="700.000000pt" viewBox="0 0 700.000000 700.000000"
 preserveAspectRatio="xMidYMid meet">
<metadata>
Created by potrace 1.14, written by Peter Selinger 2001-2017
</metadata>
<g transform="translate(0.000000,700.000000) scale(0.100000,-0.100000)"
fill="#000000" stroke="none">
<path d="M3360 6994 c-337 -17 -668 -77 -960 -174 -984 -326 -1774 -1073
-2153 -2035 -420 -1064 -288 -2287 350 -3237 178 -266 495 -609 733 -792 278
-216 640 -420 936 -530 796 -294 1674 -294 2464 -1 248 92 590 274 803 427
368 265 696 614 937 998 94 150 246 460 308 630 288 784 288 1656 0 2440 -93
255 -274 596 -430 813 -163 226 -442 523 -643 683 -542 433 -1151 686 -1825
758 -142 15 -410 25 -520 20z m1297 -3054 c631 -643 1149 -1174 1151 -1180 3
-7 -752 -10 -2303 -10 -1795 0 -2306 3 -2303 12 5 15 2290 2347 2300 2347 4 1
524 -525 1155 -1169z"/>
<path d="M2567 3892 l-928 -947 117 -3 116 -3 820 826 821 826 821 -826 821
-827 107 4 107 3 -930 948 c-512 521 -933 947 -937 946 -4 0 -425 -426 -935
-947z"/>
<path d="M2835 3640 l-680 -680 111 2 112 3 567 559 566 559 137 -135 c75 -74
332 -327 571 -562 l435 -426 104 0 104 0 -640 648 c-352 356 -655 662 -674
679 l-33 33 -680 -680z"/>
<path d="M3075 3385 l-430 -424 115 0 115 -1 317 317 318 318 152 -150 c84
-83 230 -226 323 -318 l171 -168 111 3 112 3 -429 423 c-236 232 -433 422
-437 422 -5 0 -201 -191 -438 -425z"/>
<path d="M3330 3145 l-185 -185 370 0 370 0 -185 185 c-102 102 -185 185 -185
185 0 0 -83 -83 -185 -185z"/>
</g>
</svg>
