<svg width="138" height="38" viewBox="0 0 138 38" fill="none" xmlns="http://www.w3.org/2000/svg">
<g clip-path="url(#clip0_583_63920)">
<path d="M40.2095 30.1959L40.1797 30.2257V34.3385L40.2095 34.3682H41.4732C42.7547 34.3682 43.6785 33.4444 43.6785 32.2821C43.6785 31.1198 42.7547 30.1959 41.4732 30.1959H40.2095ZM40.6386 30.6549H41.4732C42.4447 30.6549 43.1481 31.3701 43.1481 32.2821C43.1481 33.194 42.4447 33.9093 41.4732 33.9093H40.6386V30.6549ZM45.1304 30.1959L45.1007 30.2257V34.3385L45.1304 34.3682H45.5298L45.5596 34.3385V30.2257L45.5298 30.1959H45.1304ZM50.7573 31.0185V30.4939C50.3699 30.2019 49.8335 30.1064 49.2672 30.1064C47.9857 30.1064 47.0022 31.09 47.0022 32.2821C47.0022 33.504 48.0155 34.4577 49.297 34.4577C49.8335 34.4577 50.3699 34.3087 50.8169 33.9809V32.1093L50.7872 32.0794H49.4162L49.3864 32.1093V32.5145L49.4162 32.5443H50.358V33.7067C50.0421 33.8914 49.6427 33.9749 49.297 33.9749C48.2957 33.9749 47.5267 33.2417 47.5267 32.2821C47.5267 31.3403 48.2658 30.5893 49.2672 30.5893C49.7738 30.5893 50.3281 30.6965 50.7275 31.0482L50.7573 31.0185ZM52.4053 30.1959L52.3755 30.2257V34.3385L52.4053 34.3682H52.8047L52.8345 34.3385V30.2257L52.8047 30.1959H52.4053ZM54.1519 30.1959L54.1221 30.2257V30.6251L54.1519 30.6549H55.5586V34.3385L55.5884 34.3682H55.9937L56.0235 34.3385V30.6549H57.4302L57.46 30.6251V30.2257L57.4302 30.1959H54.1519ZM59.3018 30.1959L59.272 30.2257L57.615 34.3385L57.6448 34.3682H58.0859L58.1156 34.3385L58.5567 33.2477H60.4641L60.9112 34.3385L60.941 34.3682H61.382L61.4119 34.3385L59.7488 30.2257L59.7191 30.1959H59.3018ZM59.5104 30.8277L60.2853 32.7888H58.7415L59.5104 30.8277ZM62.6394 30.1959L62.6155 30.2197V34.3444L62.6394 34.3682H65.0176L65.0415 34.3444V33.9391L65.0176 33.9093H63.0745V30.2197L63.0507 30.1959H62.6394ZM66.1221 32.7351L66.0923 32.7649V33.1702L66.1221 33.2H67.9699L67.9997 33.1702V32.7649L67.9699 32.7351H66.1221ZM70.6187 30.1959L70.5889 30.2257L68.9319 34.3385L68.9617 34.3682H69.4027L69.4325 34.3385L69.8736 33.2477H71.781L72.228 34.3385L72.2578 34.3682H72.6989L72.7287 34.3385L71.0657 30.2257L71.0359 30.1959H70.6187ZM70.8273 30.8277L71.6022 32.7888H70.0584L70.8273 30.8277ZM73.9622 30.1959L73.9324 30.2257V34.3385L73.9622 34.3682H74.3615L74.3914 34.3385V30.6549H76.3286L76.3583 30.6251V30.2257L76.3286 30.1959H73.9622ZM77.6782 30.1959L77.6484 30.2257V34.3385L77.6782 34.3682H80.2234L80.2532 34.3385V33.9391L80.2234 33.9093H78.1074V32.3059H79.5678L79.5975 32.2761V31.8708L79.5678 31.841H78.1074V30.6549H80.0446L80.0744 30.6251V30.2257L80.0446 30.1959H77.6782ZM81.6329 30.1959L81.6032 30.2257V34.3385L81.6329 34.3682H82.0323L82.0621 34.3385V32.3059H84.4642V34.3385L84.494 34.3682H84.8931L84.9228 34.3385V30.2257L84.8931 30.1959H84.494L84.4642 30.2257V31.841H82.0621V30.2257L82.0323 30.1959H81.6329ZM86.2376 30.1959L86.2078 30.2257V30.6251L86.2376 30.6549H87.644V34.3385L87.6737 34.3682H88.0795L88.1092 34.3385V30.6549H89.5157L89.5454 30.6251V30.2257L89.5157 30.1959H86.2376ZM93.7788 31.0781V30.5535C93.3912 30.2734 92.9144 30.1064 92.3484 30.1064C91.1262 30.1064 90.1429 31.09 90.1429 32.2821C90.1429 33.4742 91.1262 34.4577 92.3484 34.4577C92.9144 34.4577 93.3912 34.2908 93.7788 34.0106V33.4861L93.7491 33.4563C93.3499 33.7841 92.8549 33.9749 92.3484 33.9749C91.4245 33.9749 90.6676 33.2238 90.6676 32.2821C90.6676 31.3403 91.4245 30.5893 92.3484 30.5893C92.8549 30.5893 93.3499 30.78 93.7491 31.1079L93.7788 31.0781ZM94.9737 30.1959L94.9439 30.2257V30.6251L94.9737 30.6549H96.3801V34.3385L96.4099 34.3682H96.8156L96.8454 34.3385V30.6549H98.2518L98.2816 30.6251V30.2257L98.2518 30.1959H94.9737ZM99.5996 30.1959L99.5698 30.2257V34.3385L99.5996 34.3682H100.959C101.763 34.3682 102.36 33.8258 102.36 33.1106C102.36 32.5861 102.061 32.1569 101.412 31.9781C101.674 31.829 101.852 31.5966 101.852 31.245C101.852 30.6132 101.382 30.1959 100.547 30.1959H99.5996ZM100.028 30.6549H100.547C101.089 30.6549 101.328 30.8814 101.328 31.245C101.328 31.6563 101.036 31.8708 100.547 31.8708H100.028V30.6549ZM100.028 32.3358H100.959C101.495 32.3358 101.835 32.6576 101.835 33.1106C101.835 33.5874 101.495 33.9093 100.959 33.9093H100.028V32.3358ZM105.749 30.1064C104.533 30.1064 103.544 31.084 103.544 32.2821C103.544 33.4802 104.533 34.4577 105.749 34.4577C106.965 34.4577 107.954 33.4802 107.954 32.2821C107.954 31.084 106.965 30.1064 105.749 30.1064ZM105.749 30.5893C106.673 30.5893 107.423 31.3463 107.423 32.2821C107.423 33.2179 106.673 33.9749 105.749 33.9749C104.825 33.9749 104.068 33.2179 104.068 32.2821C104.068 31.3463 104.825 30.5893 105.749 30.5893Z" fill="white"/>
<path fill-rule="evenodd" clip-rule="evenodd" d="M15.2874 3.5127C16.9408 3.5127 18.5328 3.77515 20.0241 4.26068L17.1296 9.39488H20.5504L22.7026 5.42828C27.3977 8.03748 30.5749 13.0478 30.5749 18.8001C30.5749 27.2432 23.7305 34.0875 15.2874 34.0875C6.84441 34.0875 0 27.2432 0 18.8001C0 10.3571 6.84441 3.5127 15.2874 3.5127ZM13.8603 12.2169L13.9483 12.1289H16.4113L16.4993 12.2169L21.1614 24.3561L21.0735 24.4441H18.3466L18.2586 24.3561L17.3789 21.8931H12.9807L12.101 24.3561L12.013 24.4441H9.28616L9.19815 24.3561L13.8603 12.2169ZM16.5873 19.43L15.1798 15.2957L13.7724 19.43H16.5873Z" fill="white"/>
<path d="M44.1051 3.5127C45.5461 3.5127 46.6482 3.84987 47.4117 4.52386C48.1749 5.19786 48.5568 6.21512 48.5568 7.57499V13.1763H46.3949V12.0132C46.114 12.4307 45.714 12.7498 45.195 12.9705C44.676 13.1913 44.05 13.3017 43.3173 13.3017C42.5845 13.3017 41.9434 13.1794 41.3938 12.9349C40.8442 12.6902 40.42 12.3501 40.1206 11.9147C39.8214 11.4792 39.6719 10.9873 39.6719 10.4382C39.6719 9.57932 39.9984 8.8904 40.6518 8.3713C41.3054 7.85242 42.3344 7.59297 43.7386 7.59297H46.2668V7.44976C46.2668 6.7817 46.0622 6.26874 45.6529 5.91071C45.2439 5.55284 44.6362 5.37382 43.8303 5.37382C43.2807 5.37382 42.7404 5.45747 42.2089 5.62445C41.6778 5.79141 41.229 6.02406 40.8626 6.32237L39.9649 4.69388C40.4779 4.3121 41.0947 4.01972 41.8152 3.81711C42.5358 3.61417 43.2989 3.5127 44.1051 3.5127ZM43.7936 11.673C44.3675 11.673 44.8775 11.5448 45.3233 11.2884C45.7692 11.0319 46.0835 10.665 46.2668 10.1878V9.07823H43.9036C42.5845 9.07823 41.9251 9.50189 41.9251 10.3489C41.9251 10.7544 42.0899 11.0767 42.4196 11.3152C42.7494 11.5538 43.2076 11.673 43.7936 11.673ZM55.4629 9.34671H53.6859V13.1763H51.3962V3.62029H53.6859V7.48557H55.5177L58.4123 3.62029H60.8671L57.3132 8.21929L61.1053 13.1763H58.4123L55.4629 9.34671ZM73.1158 11.2794L73.7911 13.1638L71.3091 13.1763H62.7171V3.62029H65.0071V11.2794H69.6785V3.62029H71.9683V11.2794H73.1158ZM84.645 8.4519C84.645 8.60704 84.6334 8.82784 84.6086 9.11409H76.9329C77.0672 9.81814 77.4185 10.3757 77.9863 10.7874C78.5541 11.199 79.2596 11.4048 80.1022 11.4048C81.1766 11.4048 82.062 11.0587 82.7585 10.3668L83.9856 11.7447C83.546 12.2578 82.9907 12.6454 82.3185 12.908C81.6467 13.1704 80.8898 13.3017 80.0473 13.3017C78.9721 13.3017 78.0256 13.0928 77.2076 12.6752C76.389 12.2578 75.7573 11.6762 75.3117 10.9305C74.8655 10.185 74.6428 9.34076 74.6428 8.39814C74.6428 7.46758 74.8599 6.6295 75.2935 5.8839C75.7263 5.13829 76.3279 4.5566 77.0973 4.13901C77.8668 3.72158 78.734 3.5127 79.6987 3.5127C80.6517 3.5127 81.5033 3.71853 82.2545 4.13002C83.0055 4.54184 83.5914 5.1203 84.0137 5.86607C84.4343 6.61168 84.645 7.47368 84.645 8.4519ZM79.6987 5.30238C78.9659 5.30238 78.3461 5.51415 77.8394 5.93752C77.3327 6.36122 77.0243 6.92492 76.9146 7.62878H82.4654C82.3669 6.9368 82.0683 6.37599 81.5673 5.94651C81.0669 5.51703 80.4436 5.30238 79.6987 5.30238ZM87.1546 3.62029H89.4444V7.50355H94.3719V3.62029H96.6626V13.1763H94.3719V9.40042H89.4444V13.1763H87.1546V3.62029ZM107.496 5.51703H104.063V13.1763H101.773V5.51703H98.3293V3.62029H107.482L107.496 5.51703Z" fill="white"/>
<path d="M135.113 25.3164H131.969L134.86 17.7715H138.004L135.113 25.3164Z" fill="white"/>
<path d="M40.3672 17.6236H42.3974V20.3644H45.4621V17.6236H47.5054V24.6456H45.4621V22.022H42.3974V24.6456H40.3672V17.6236ZM52.1945 17.5192C53.286 17.5192 54.1243 17.778 54.7094 18.2958C55.2945 18.8135 55.5869 19.5944 55.5869 20.6386V24.6456H53.6747V23.7711C53.2904 24.4237 52.5743 24.75 51.5265 24.75C50.9853 24.75 50.516 24.6586 50.1186 24.4758C49.7213 24.2932 49.4178 24.0408 49.2082 23.7188C48.9988 23.3969 48.8939 23.0315 48.8939 22.6226C48.8939 21.9699 49.1406 21.4564 49.634 21.0822C50.1274 20.7082 50.8892 20.5211 51.9195 20.5211H53.5436C53.5436 20.0775 53.4084 19.7357 53.1376 19.4966C52.8668 19.2572 52.4608 19.1376 51.9195 19.1376C51.544 19.1376 51.1752 19.1963 50.8128 19.3139C50.4503 19.4311 50.1427 19.5901 49.8894 19.7902L49.1559 18.3676C49.5401 18.0977 50.0007 17.8889 50.5376 17.7411C51.0748 17.5932 51.6271 17.5192 52.1945 17.5192ZM52.0372 23.3797C52.3868 23.3797 52.6965 23.299 52.9674 23.1381C53.238 22.9771 53.4301 22.7399 53.5436 22.4267V21.7089H52.1421C51.3039 21.7089 50.8849 21.9829 50.8849 22.5312C50.8849 22.7923 50.9874 22.9987 51.1926 23.1512C51.3979 23.3035 51.6794 23.3797 52.0372 23.3797ZM65.2269 17.5192C65.8817 17.5192 66.4777 17.6693 67.0147 17.9695C67.5517 18.2697 67.973 18.6915 68.2786 19.2354C68.5843 19.7793 68.7371 20.4125 68.7371 21.1346C68.7371 21.8567 68.5843 22.4897 68.2786 23.0336C67.973 23.5774 67.5517 23.9995 67.0147 24.2996C66.4777 24.5998 65.8817 24.75 65.2269 24.75C64.3275 24.75 63.6203 24.4671 63.105 23.9016V27.1778H61.0619V17.6236H63.0133V18.4327C63.5197 17.8238 64.2576 17.5192 65.2269 17.5192ZM64.8732 23.0794C65.3972 23.0794 65.8272 22.9032 66.1634 22.5507C66.4995 22.1983 66.6677 21.7263 66.6677 21.1346C66.6677 20.5429 66.4995 20.071 66.1634 19.7184C65.8272 19.366 65.3972 19.1898 64.8732 19.1898C64.3493 19.1898 63.9193 19.366 63.5832 19.7184C63.247 20.071 63.0788 20.5429 63.0788 21.1346C63.0788 21.7263 63.247 22.1983 63.5832 22.5507C63.9193 22.9032 64.3493 23.0794 64.8732 23.0794ZM77.0152 21.1607C77.0152 21.1868 77.0019 21.3696 76.976 21.7089H71.6449C71.741 22.1439 71.9682 22.4877 72.3259 22.7399C72.6837 22.9923 73.129 23.1186 73.6621 23.1186C74.0289 23.1186 74.3543 23.0642 74.6376 22.9553C74.9216 22.8465 75.1853 22.6748 75.4301 22.4398L76.5172 23.6144C75.8538 24.3714 74.8845 24.75 73.6094 24.75C72.8148 24.75 72.112 24.5955 71.5008 24.2866C70.8894 23.9778 70.4181 23.5491 70.0862 23.0009C69.7544 22.4527 69.5885 21.8307 69.5885 21.1346C69.5885 20.4471 69.7523 19.8273 70.0796 19.2747C70.4071 18.7222 70.8568 18.2914 71.4288 17.9826C72.0005 17.6735 72.6401 17.5192 73.3478 17.5192C74.0372 17.5192 74.6614 17.6671 75.2205 17.9629C75.7794 18.2588 76.2184 18.6829 76.5369 19.2354C76.8553 19.7881 77.0152 20.4298 77.0152 21.1607ZM73.3604 19.0594C72.8975 19.0594 72.5097 19.1898 72.1948 19.4509C71.8805 19.7119 71.6884 20.0686 71.6182 20.5211H75.0893C75.0198 20.0775 74.8277 19.7228 74.5134 19.4574C74.1993 19.1921 73.8149 19.0594 73.3604 19.0594ZM83.0669 20.991C83.485 21.1215 83.8106 21.3217 84.042 21.5914C84.2733 21.8611 84.389 22.1831 84.389 22.5573C84.389 23.0009 84.2362 23.3903 83.9304 23.7253C83.6247 24.0605 83.2057 24.3193 82.6727 24.5021C82.1408 24.6847 81.5383 24.7761 80.8657 24.7761C80.3158 24.7761 79.7744 24.7196 79.242 24.6064C78.709 24.4933 78.2152 24.3236 77.7615 24.0975L78.3113 22.6748C79.0541 23.0315 79.8747 23.2098 80.7738 23.2098C81.2542 23.2098 81.6323 23.1381 81.9072 22.9946C82.1821 22.851 82.3196 22.6485 82.3196 22.3875C82.3196 22.1613 82.2235 21.9896 82.0313 21.872C81.8392 21.7545 81.56 21.6959 81.1932 21.6959H79.7526V20.4298H81.0102C81.3678 20.4298 81.6427 20.3732 81.835 20.26C82.0272 20.1471 82.1232 19.9816 82.1232 19.7641C82.1232 19.5377 82.0033 19.3638 81.7627 19.242C81.5229 19.1202 81.1799 19.0594 80.7345 19.0594C80.0535 19.0594 79.3115 19.2202 78.5077 19.5423L78.0105 18.1325C78.9881 17.7063 79.9399 17.4932 80.8657 17.4932C81.5032 17.4932 82.0727 17.5713 82.5749 17.7279C83.0768 17.8846 83.4718 18.113 83.7602 18.4132C84.0486 18.7133 84.1932 19.0635 84.1932 19.464C84.1932 19.7946 84.0915 20.0927 83.8916 20.358C83.6908 20.6235 83.4148 20.8343 83.0669 20.991ZM92.9293 17.6236L89.7454 25.0763C89.4231 25.8855 89.0232 26.4555 88.548 26.7862C88.0712 27.1169 87.4978 27.2822 86.8251 27.2822C86.4582 27.2822 86.0954 27.2256 85.7376 27.1123C85.3806 26.9994 85.0873 26.8427 84.8609 26.6426L85.6071 25.1938C85.7649 25.3331 85.9459 25.4417 86.1508 25.5202C86.3557 25.5984 86.5582 25.6375 86.7598 25.6375C87.0391 25.6375 87.2664 25.5701 87.4407 25.4354C87.6159 25.3002 87.7729 25.0763 87.9126 24.7631L87.9382 24.6978L84.8865 17.6236H86.9953L88.9736 22.3875L90.9635 17.6236H92.9293ZM100.172 17.6236V24.6456H98.1279V19.2942H95.9017L95.8364 20.5342C95.8009 21.4564 95.7141 22.2224 95.5745 22.8313C95.4348 23.4405 95.2076 23.919 94.8936 24.2671C94.5796 24.615 94.1424 24.7892 93.5838 24.7892C93.2871 24.7892 92.9335 24.7368 92.5228 24.6325L92.6277 22.9619C92.7674 22.9792 92.8674 22.988 92.9293 22.988C93.2343 22.988 93.4632 22.8769 93.616 22.6551C93.7689 22.4332 93.8714 22.1506 93.9243 21.8067C93.9771 21.463 94.0152 21.0085 94.0424 20.4429L94.1465 17.6236H100.172ZM105.948 19.8684C106.864 19.8773 107.568 20.0838 108.056 20.4884C108.546 20.8931 108.79 21.4653 108.79 22.2048C108.79 22.9792 108.518 23.5818 107.972 24.0126C107.425 24.4432 106.66 24.6586 105.672 24.6586L102.136 24.6456V17.6236H104.166V19.8684H105.948ZM105.49 23.2098C105.882 23.2186 106.183 23.1359 106.393 22.9619C106.603 22.7877 106.708 22.5267 106.708 22.1788C106.708 21.8393 106.605 21.5914 106.4 21.4347C106.195 21.2782 105.891 21.1954 105.49 21.1868L104.166 21.1736V23.2098H105.49ZM115.339 19.2942H112.955V24.6456H110.926V19.2942H108.542V17.6236H115.339V19.2942ZM119.163 17.5192C120.255 17.5192 121.093 17.778 121.679 18.2958C122.263 18.8135 122.556 19.5944 122.556 20.6386V24.6456H120.643V23.7711C120.26 24.4237 119.544 24.75 118.496 24.75C117.954 24.75 117.485 24.6586 117.088 24.4758C116.69 24.2932 116.387 24.0408 116.177 23.7188C115.968 23.3969 115.863 23.0315 115.863 22.6226C115.863 21.9699 116.11 21.4564 116.603 21.0822C117.097 20.7082 117.858 20.5211 118.888 20.5211H120.513C120.513 20.0775 120.377 19.7357 120.107 19.4966C119.836 19.2572 119.43 19.1376 118.888 19.1376C118.513 19.1376 118.145 19.1963 117.782 19.3139C117.419 19.4311 117.112 19.5901 116.858 19.7902L116.125 18.3676C116.508 18.0977 116.969 17.8889 117.507 17.7411C118.044 17.5932 118.596 17.5192 119.163 17.5192ZM119.006 23.3797C119.356 23.3797 119.666 23.299 119.936 23.1381C120.207 22.9771 120.399 22.7399 120.513 22.4267V21.7089H119.111C118.273 21.7089 117.854 21.9829 117.854 22.5312C117.854 22.7923 117.956 22.9987 118.161 23.1512C118.367 23.3035 118.649 23.3797 119.006 23.3797ZM129.948 19.2942H127.874V24.6456H125.843V19.2942H123.46V17.6236H130.566L129.948 19.2942Z" fill="white"/>
</g>
<defs>
<clipPath id="clip0_583_63920">
<rect width="138" height="38" fill="white"/>
</clipPath>
</defs>
</svg>
