<svg width="198" height="42" viewBox="0 0 198 42" fill="none" xmlns="http://www.w3.org/2000/svg">
<path d="M3.93034 39.9678L40.901 2.2873L77.8716 39.9678H3.93034Z" stroke="white" stroke-width="3.20383"/>
<path d="M13.1331 39.6493L41.051 11.5652L68.969 39.6493H13.1331Z" stroke="white" stroke-width="3.20383"/>
<path d="M21.5236 39.7274L41.0567 20.509L60.5898 39.7274H21.5236Z" stroke="white" stroke-width="3.20383"/>
<path d="M30.1205 39.9658L41.0624 29.1614L52.0042 39.9658H30.1205Z" stroke="white" stroke-width="3.20383"/>
<path d="M95.9141 19.3567H99.3634V20.8988C99.3634 23.0089 100.27 24.064 102.082 24.064C103.922 24.064 104.842 22.9954 104.842 20.8582V14.5683H100.094V11.5248H104.842V6.65514C104.842 4.49086 103.935 3.40873 102.123 3.40873C101.203 3.40873 100.513 3.69279 100.053 4.26091C99.5933 4.82903 99.3634 5.64064 99.3634 6.69572V7.87254H95.9141V7.02036C95.9141 4.82903 96.4416 3.11114 97.4967 1.86669C98.5788 0.622228 100.148 0 102.204 0C104.233 0 105.775 0.608702 106.83 1.82611C107.912 3.04351 108.453 4.74787 108.453 6.9392V20.6147C108.453 22.806 107.926 24.4969 106.871 25.6872C105.816 26.8505 104.233 27.4322 102.123 27.4322C100.094 27.4322 98.5518 26.8776 97.4967 25.7684C96.4416 24.6592 95.9141 22.9683 95.9141 20.6959V19.3567Z" fill="white"/>
<path d="M112.009 27.1887V0.24348H119.354C121.22 0.24348 122.533 0.716915 123.29 1.66378C124.075 2.61065 124.467 3.93627 124.467 5.64064V8.40008C124.467 10.916 123.561 12.3905 121.748 12.8233V12.9856C122.776 13.175 123.547 13.6079 124.061 14.2842C124.575 14.9335 124.832 15.9886 124.832 17.4494V22.5625C124.832 24.1046 124.453 25.2679 123.696 26.0524C122.965 26.8099 121.694 27.1887 119.881 27.1887H112.009ZM121.22 17.206C121.22 16.2591 121.018 15.5828 120.612 15.177C120.233 14.7712 119.584 14.5683 118.664 14.5683H115.58V24.0234H118.786C119.651 24.0234 120.274 23.807 120.652 23.3741C121.031 22.9413 121.22 22.292 121.22 21.4263V17.206ZM121.058 6.16818C121.058 5.24836 120.882 4.5585 120.531 4.09859C120.206 3.63868 119.584 3.40873 118.664 3.40873H115.58V11.5248H118.704C119.408 11.5248 119.976 11.3218 120.409 10.916C120.842 10.5102 121.058 9.79333 121.058 8.7653V6.16818Z" fill="white"/>
<path d="M128.143 27.1887V0.24348H137.882V3.53047H131.714V11.403H137.355V14.7306H131.714V23.9017H138.207V27.1887H128.143Z" fill="white"/>
<path d="M144.997 16.4755V27.1887H141.345V0.24348H148.852C150.719 0.24348 152.031 0.716915 152.788 1.66378C153.573 2.61065 153.965 3.93627 153.965 5.64064V11.0784C153.965 12.7827 153.573 14.1083 152.788 15.0552C152.031 16.0021 150.719 16.4755 148.852 16.4755H144.997ZM144.997 13.3103H148.122C148.987 13.3103 149.596 13.0668 149.948 12.5798C150.326 12.0929 150.516 11.403 150.516 10.5102V6.04644C150.516 5.23483 150.326 4.61261 149.948 4.17975C149.596 3.7469 148.987 3.53047 148.122 3.53047H144.997V13.3103Z" fill="white"/>
<path d="M157.241 27.1887V0.24348H166.981V3.53047H160.812V11.403H166.453V14.7306H160.812V23.9017H167.305V27.1887H157.241Z" fill="white"/>
<path d="M179.533 16.1915H182.982V20.6959C182.982 22.9683 182.455 24.6592 181.4 25.7684C180.345 26.8776 178.803 27.4322 176.774 27.4322C174.663 27.4322 173.081 26.8505 172.026 25.6872C170.971 24.4969 170.443 22.806 170.443 20.6147V6.7363C170.443 4.46381 170.971 2.77297 172.026 1.66378C173.081 0.554595 174.623 0 176.652 0C178.708 0 180.277 0.554595 181.359 1.66378C182.441 2.77297 182.982 4.45029 182.982 6.69572V9.90155H179.533V6.69572C179.533 5.64064 179.303 4.82903 178.843 4.26091C178.383 3.69279 177.693 3.40873 176.774 3.40873C174.961 3.40873 174.055 4.49086 174.055 6.65514V20.8988C174.055 21.9268 174.271 22.7113 174.704 23.2524C175.137 23.7935 175.827 24.064 176.774 24.064C178.613 24.064 179.533 23.0089 179.533 20.8988V16.1915Z" fill="white"/>
<path d="M189.806 27.1887V3.53047H185.302V0.24348H198.003V3.53047H193.418V27.1887H189.806Z" fill="white"/>
<path d="M95.9141 40.3823L97.7861 35.5647H98.6223L100.542 40.3823H99.6719L99.2279 39.233H97.1873L96.7606 40.3823H95.9141ZM97.3869 38.5688H99.0215L98.1887 36.4697L97.3869 38.5688Z" fill="white"/>
<path d="M101.309 40.3823V35.5647H104.038V36.2701H102.08V40.3823H101.309Z" fill="white"/>
<path d="M104.92 40.3823V35.5647H108.034V36.246H105.691V37.5468H107.714V38.1903H105.691V39.6941H108.055V40.3823H104.92Z" fill="white"/>
<path d="M109.203 40.3823V35.5647H109.974V37.478H112.307V35.5647H113.078V40.3823H112.307V38.1869H109.974V40.3823H109.203Z" fill="white"/>
<path d="M116.595 40.4856C116.095 40.4856 115.658 40.3823 115.284 40.1759C114.91 39.9694 114.619 39.678 114.41 39.3018C114.204 38.9233 114.1 38.4817 114.1 37.9769C114.1 37.6099 114.161 37.2738 114.283 36.9687C114.407 36.6613 114.58 36.3951 114.802 36.1703C115.027 35.9455 115.292 35.7711 115.597 35.6473C115.902 35.5234 116.237 35.4614 116.602 35.4614C116.969 35.4614 117.286 35.5073 117.552 35.5991C117.82 35.6908 118.054 35.8216 118.254 35.9914L117.855 36.6211C117.703 36.4812 117.527 36.3768 117.325 36.308C117.123 36.2391 116.9 36.2047 116.657 36.2047C116.389 36.2047 116.147 36.246 115.931 36.3286C115.715 36.4112 115.531 36.5293 115.377 36.6831C115.226 36.8345 115.109 37.0191 115.026 37.2371C114.946 37.4527 114.906 37.6971 114.906 37.9701C114.906 38.3417 114.978 38.6595 115.122 38.9233C115.269 39.1871 115.476 39.389 115.742 39.5289C116.01 39.6666 116.327 39.7354 116.692 39.7354C116.935 39.7354 117.169 39.6998 117.394 39.6287C117.621 39.5553 117.833 39.4372 118.03 39.2743L118.388 39.9247C118.156 40.1059 117.891 40.2447 117.593 40.3411C117.297 40.4374 116.965 40.4856 116.595 40.4856Z" fill="white"/>
<path d="M120.183 40.3823V36.2701H118.827V35.5647H122.309V36.2701H120.954V40.3823H120.183Z" fill="white"/>
<path d="M123.187 40.3823V35.5647H124.843C125.304 35.5647 125.677 35.6679 125.961 35.8744C126.246 36.0785 126.388 36.3802 126.388 36.7794C126.388 36.9331 126.351 37.0788 126.278 37.2164C126.207 37.3518 126.114 37.4711 125.999 37.5743C125.884 37.6776 125.765 37.7533 125.641 37.8014C125.903 37.8817 126.12 38.0286 126.295 38.2419C126.472 38.4553 126.56 38.718 126.56 39.03C126.56 39.2938 126.493 39.5278 126.36 39.732C126.227 39.9338 126.038 40.0933 125.792 40.2103C125.547 40.325 125.256 40.3823 124.918 40.3823H123.187ZM123.958 39.7767H124.788C125.118 39.7767 125.363 39.7125 125.524 39.584C125.685 39.4532 125.765 39.2571 125.765 38.9955C125.765 38.7363 125.683 38.539 125.521 38.4037C125.36 38.2683 125.111 38.2006 124.774 38.2006H123.958V39.7767ZM123.958 37.6225H124.722C124.908 37.6225 125.069 37.5927 125.204 37.533C125.339 37.4734 125.445 37.3874 125.521 37.2749C125.596 37.1625 125.634 37.0272 125.634 36.8689C125.634 36.6441 125.554 36.472 125.393 36.3527C125.235 36.2311 125.008 36.1703 124.712 36.1703H123.958V37.6225Z" fill="white"/>
<path d="M129.855 40.4856C129.493 40.4856 129.156 40.4225 128.847 40.2963C128.539 40.1678 128.271 39.9901 128.042 39.7629C127.814 39.5358 127.637 39.2697 127.508 38.9646C127.382 38.6595 127.319 38.3291 127.319 37.9735C127.319 37.6156 127.382 37.2841 127.508 36.979C127.637 36.6739 127.814 36.4078 128.042 36.1806C128.271 35.9535 128.539 35.7769 128.847 35.6507C129.156 35.5245 129.493 35.4614 129.855 35.4614C130.215 35.4614 130.549 35.5257 130.856 35.6541C131.164 35.7826 131.432 35.9615 131.662 36.191C131.891 36.4204 132.069 36.6876 132.195 36.9928C132.324 37.2956 132.388 37.6225 132.388 37.9735C132.388 38.3291 132.324 38.6595 132.195 38.9646C132.069 39.2697 131.891 39.5358 131.662 39.7629C131.432 39.9901 131.164 40.1678 130.856 40.2963C130.549 40.4225 130.215 40.4856 129.855 40.4856ZM129.855 39.7561C130.098 39.7561 130.324 39.7148 130.533 39.6322C130.744 39.5473 130.928 39.4268 131.084 39.2708C131.24 39.1125 131.361 38.9244 131.448 38.7065C131.538 38.4862 131.583 38.2419 131.583 37.9735C131.583 37.6133 131.506 37.3002 131.352 37.0341C131.201 36.7656 130.994 36.558 130.733 36.4112C130.471 36.2644 130.179 36.191 129.855 36.191C129.612 36.191 129.385 36.2334 129.174 36.3183C128.965 36.4009 128.781 36.5202 128.623 36.6762C128.467 36.8322 128.344 37.0203 128.255 37.2405C128.168 37.4585 128.124 37.7028 128.124 37.9735C128.124 38.3337 128.201 38.648 128.355 38.9164C128.508 39.1825 128.715 39.389 128.974 39.5358C129.236 39.6826 129.529 39.7561 129.855 39.7561Z" fill="white"/>
<path d="M135.163 40.3823V35.5647H135.933V37.478H138.267V35.5647H139.037V40.3823H138.267V38.1869H135.933V40.3823H135.163Z" fill="white"/>
<path d="M140.36 40.3823V35.5647H143.474V36.246H141.13V37.5468H143.154V38.1903H141.13V39.6941H143.495V40.3823H140.36Z" fill="white"/>
<path d="M147.802 40.3823V36.2701H145.916V37.01C145.916 37.595 145.888 38.0871 145.833 38.4862C145.778 38.8854 145.692 39.2123 145.575 39.467C145.458 39.7193 145.304 39.9155 145.114 40.0554C144.926 40.1954 144.696 40.2975 144.426 40.3617L144.15 39.7388C144.357 39.6907 144.527 39.6173 144.66 39.5186C144.793 39.42 144.896 39.2731 144.969 39.0781C145.045 38.8808 145.098 38.6159 145.128 38.2832C145.16 37.9483 145.176 37.5239 145.176 37.01V35.5647H148.572V40.3823H147.802ZM144.15 41.6074V39.7388L144.68 39.7664L144.966 39.6735H149.34V41.6074H148.614V40.3823H144.877V41.6074H144.15Z" fill="white"/>
<path d="M150.223 40.3823V35.5647H151.878C152.339 35.5647 152.712 35.6679 152.996 35.8744C153.281 36.0785 153.423 36.3802 153.423 36.7794C153.423 36.9331 153.386 37.0788 153.313 37.2164C153.242 37.3518 153.149 37.4711 153.034 37.5743C152.919 37.6776 152.8 37.7533 152.676 37.8014C152.938 37.8817 153.156 38.0286 153.33 38.2419C153.507 38.4553 153.595 38.718 153.595 39.03C153.595 39.2938 153.529 39.5278 153.395 39.732C153.262 39.9338 153.073 40.0933 152.828 40.2103C152.582 40.325 152.291 40.3823 151.954 40.3823H150.223ZM150.994 39.7767H151.823C152.153 39.7767 152.399 39.7125 152.559 39.584C152.72 39.4532 152.8 39.2571 152.8 38.9955C152.8 38.7363 152.719 38.539 152.556 38.4037C152.395 38.2683 152.146 38.2006 151.809 38.2006H150.994V39.7767ZM150.994 37.6225H151.757C151.943 37.6225 152.104 37.5927 152.239 37.533C152.375 37.4734 152.48 37.3874 152.556 37.2749C152.632 37.1625 152.669 37.0272 152.669 36.8689C152.669 36.6441 152.589 36.472 152.428 36.3527C152.27 36.2311 152.043 36.1703 151.747 36.1703H150.994V37.6225Z" fill="white"/>
<path d="M154.654 40.3823V35.5647H155.421V39.1229L157.83 35.5647H158.573V40.3823H157.809V36.8001L155.39 40.3823H154.654Z" fill="white"/>
<path d="M165.049 40.3823L163.277 37.8324L164.853 35.5647H165.737L164.151 37.8255L165.975 40.3823H165.049ZM159.423 40.3823L161.236 37.8668L159.67 35.5647H160.582L162.11 37.8359L160.314 40.3823H159.423ZM162.313 40.3823V38.1593H161.508V37.4986H162.313V35.5647H163.084V37.4986H163.886V38.1593H163.084V40.3823H162.313Z" fill="white"/>
<path d="M166.822 40.3823V35.5647H167.589V39.1229L169.998 35.5647H170.741V40.3823H169.978V36.8001L167.558 40.3823H166.822Z" fill="white"/>
<path d="M172.066 40.3823V35.5647H172.813L174.778 38.7615L174.478 38.765L176.371 35.5647H177.104V40.3823H176.35L176.361 36.5901L176.509 36.6418L174.871 39.3431H174.306L172.637 36.6418L172.761 36.5901L172.771 40.3823H172.066Z" fill="white"/>
<path d="M180.663 40.4856C180.3 40.4856 179.964 40.4225 179.654 40.2963C179.347 40.1678 179.078 39.9901 178.849 39.7629C178.622 39.5358 178.444 39.2697 178.316 38.9646C178.189 38.6595 178.126 38.3291 178.126 37.9735C178.126 37.6156 178.189 37.2841 178.316 36.979C178.444 36.6739 178.622 36.4078 178.849 36.1806C179.078 35.9535 179.347 35.7769 179.654 35.6507C179.964 35.5245 180.3 35.4614 180.663 35.4614C181.023 35.4614 181.357 35.5257 181.664 35.6541C181.971 35.7826 182.24 35.9615 182.469 36.191C182.699 36.4204 182.876 36.6876 183.003 36.9928C183.131 37.2956 183.195 37.6225 183.195 37.9735C183.195 38.3291 183.131 38.6595 183.003 38.9646C182.876 39.2697 182.699 39.5358 182.469 39.7629C182.24 39.9901 181.971 40.1678 181.664 40.2963C181.357 40.4225 181.023 40.4856 180.663 40.4856ZM180.663 39.7561C180.906 39.7561 181.132 39.7148 181.34 39.6322C181.552 39.5473 181.735 39.4268 181.891 39.2708C182.047 39.1125 182.169 38.9244 182.256 38.7065C182.345 38.4862 182.39 38.2419 182.39 37.9735C182.39 37.6133 182.313 37.3002 182.159 37.0341C182.008 36.7656 181.802 36.558 181.54 36.4112C181.279 36.2644 180.986 36.191 180.663 36.191C180.419 36.191 180.192 36.2334 179.981 36.3183C179.772 36.4009 179.589 36.5202 179.431 36.6762C179.275 36.8322 179.152 37.0203 179.062 37.2405C178.975 37.4585 178.932 37.7028 178.932 37.9735C178.932 38.3337 179.008 38.648 179.162 38.9164C179.316 39.1825 179.522 39.389 179.782 39.5358C180.043 39.6826 180.337 39.7561 180.663 39.7561Z" fill="white"/>
<path d="M186.477 40.4856C185.977 40.4856 185.54 40.3823 185.166 40.1759C184.792 39.9694 184.501 39.678 184.292 39.3018C184.085 38.9233 183.982 38.4817 183.982 37.9769C183.982 37.6099 184.043 37.2738 184.164 36.9687C184.288 36.6613 184.462 36.3951 184.684 36.1703C184.909 35.9455 185.174 35.7711 185.479 35.6473C185.784 35.5234 186.119 35.4614 186.484 35.4614C186.851 35.4614 187.168 35.5073 187.434 35.5991C187.702 35.6908 187.936 35.8216 188.136 35.9914L187.736 36.6211C187.585 36.4812 187.408 36.3768 187.207 36.308C187.005 36.2391 186.782 36.2047 186.539 36.2047C186.27 36.2047 186.028 36.246 185.813 36.3286C185.597 36.4112 185.412 36.5293 185.259 36.6831C185.107 36.8345 184.99 37.0191 184.908 37.2371C184.827 37.4527 184.787 37.6971 184.787 37.9701C184.787 38.3417 184.86 38.6595 185.004 38.9233C185.151 39.1871 185.357 39.389 185.624 39.5289C185.892 39.6666 186.209 39.7354 186.573 39.7354C186.817 39.7354 187.051 39.6998 187.275 39.6287C187.502 39.5553 187.715 39.4372 187.912 39.2743L188.27 39.9247C188.038 40.1059 187.773 40.2447 187.475 40.3411C187.179 40.4374 186.846 40.4856 186.477 40.4856Z" fill="white"/>
<path d="M190.065 40.3823V36.2701H188.709V35.5647H192.191V36.2701H190.835V40.3823H190.065Z" fill="white"/>
<path d="M193.069 40.3823V35.5647H193.837V39.1229L196.245 35.5647H196.989V40.3823H196.225V36.8001L193.806 40.3823H193.069Z" fill="white"/>
</svg>
