<svg width="120" height="26" viewBox="0 0 120 26" fill="none" xmlns="http://www.w3.org/2000/svg">
<path d="M2.38676 24.6145L24.7932 1.77785L47.1996 24.6145H2.38676Z" stroke="white" stroke-width="1.94171"/>
<path d="M7.96892 24.4202L24.8889 7.39955L41.8088 24.4202H7.96892Z" stroke="white" stroke-width="1.94171"/>
<path d="M13.0458 24.4694L24.8841 12.8219L36.7223 24.4694H13.0458Z" stroke="white" stroke-width="1.94171"/>
<path d="M18.2567 24.6137L24.8882 18.0656L31.5196 24.6137H18.2567Z" stroke="white" stroke-width="1.94171"/>
<path d="M57.5781 11.7313H59.6686V12.6659C59.6686 13.9448 60.2179 14.5842 61.3164 14.5842C62.4313 14.5842 62.9888 13.9366 62.9888 12.6413V8.82925H60.1113V6.9847H62.9888V4.03342C62.9888 2.72174 62.4395 2.0659 61.341 2.0659C60.7835 2.0659 60.3654 2.23805 60.0867 2.58237C59.808 2.92669 59.6686 3.41857 59.6686 4.05801V4.77124H57.5781V4.25476C57.5781 2.92669 57.8978 1.88554 58.5373 1.13132C59.1931 0.377108 60.1441 0 61.3902 0C62.6199 0 63.5545 0.36891 64.1939 1.10673C64.8498 1.84455 65.1777 2.8775 65.1777 4.20557V12.4938C65.1777 13.8218 64.858 14.8466 64.2185 15.568C63.5791 16.273 62.6199 16.6255 61.341 16.6255C60.1113 16.6255 59.1767 16.2894 58.5373 15.6172C57.8978 14.945 57.5781 13.9202 57.5781 12.5429V11.7313Z" fill="white"/>
<path d="M67.3325 16.478V0.147564H71.784C72.9153 0.147564 73.7105 0.434494 74.1696 1.00835C74.6451 1.58221 74.8828 2.38562 74.8828 3.41857V5.09096C74.8828 6.61579 74.3336 7.50937 73.235 7.77171V7.87008C73.8581 7.98485 74.3254 8.24719 74.6369 8.65709C74.9484 9.05059 75.1042 9.69004 75.1042 10.5754V13.6743C75.1042 14.6088 74.8746 15.3139 74.4155 15.7894C73.9728 16.2484 73.2022 16.478 72.1037 16.478H67.3325ZM72.9153 10.4279C72.9153 9.854 72.7923 9.4441 72.5464 9.19816C72.3169 8.95222 71.9233 8.82925 71.3659 8.82925H69.4967V14.5597H71.4397C71.9643 14.5597 72.3414 14.4285 72.571 14.1661C72.8005 13.9038 72.9153 13.5103 72.9153 12.9856V10.4279ZM72.8169 3.73829C72.8169 3.18082 72.7104 2.76273 72.4972 2.48399C72.3005 2.20526 71.9233 2.0659 71.3659 2.0659H69.4967V6.9847H71.3905C71.8168 6.9847 72.1611 6.86173 72.4234 6.61579C72.6858 6.36985 72.8169 5.93535 72.8169 5.3123V3.73829Z" fill="white"/>
<path d="M77.1108 16.478V0.147564H83.0134V2.13968H79.2751V6.91091H82.6937V8.92762H79.2751V14.4859H83.2101V16.478H77.1108Z" fill="white"/>
<path d="M87.3253 9.98517V16.478H85.1119V0.147564H89.6618C90.7931 0.147564 91.5883 0.434494 92.0474 1.00835C92.5229 1.58221 92.7606 2.38562 92.7606 3.41857V6.71416C92.7606 7.74711 92.5229 8.55052 92.0474 9.12438C91.5883 9.69824 90.7931 9.98517 89.6618 9.98517H87.3253ZM87.3253 8.06683H89.2191C89.7438 8.06683 90.1127 7.91927 90.3258 7.62414C90.5554 7.32901 90.6701 6.91091 90.6701 6.36985V3.66451C90.6701 3.17263 90.5554 2.79552 90.3258 2.53318C90.1127 2.27085 89.7438 2.13968 89.2191 2.13968H87.3253V8.06683Z" fill="white"/>
<path d="M94.7461 16.478V0.147564H100.649V2.13968H96.9104V6.91091H100.329V8.92762H96.9104V14.4859H100.845V16.478H94.7461Z" fill="white"/>
<path d="M108.256 9.81301H110.347V12.5429C110.347 13.9202 110.027 14.945 109.388 15.6172C108.748 16.2894 107.814 16.6255 106.584 16.6255C105.305 16.6255 104.346 16.273 103.706 15.568C103.067 14.8466 102.747 13.8218 102.747 12.4938V4.0826C102.747 2.70534 103.067 1.68059 103.706 1.00835C104.346 0.336118 105.28 0 106.51 0C107.756 0 108.707 0.336118 109.363 1.00835C110.019 1.68059 110.347 2.69714 110.347 4.05801V6.00094H108.256V4.05801C108.256 3.41857 108.117 2.92669 107.838 2.58237C107.559 2.23805 107.141 2.0659 106.584 2.0659C105.485 2.0659 104.936 2.72174 104.936 4.03342V12.6659C104.936 13.289 105.067 13.7644 105.33 14.0924C105.592 14.4203 106.01 14.5842 106.584 14.5842C107.699 14.5842 108.256 13.9448 108.256 12.6659V9.81301Z" fill="white"/>
<path d="M114.482 16.478V2.13968H111.752V0.147564H119.45V2.13968H116.671V16.478H114.482Z" fill="white"/>
<path d="M57.5781 24.4743L58.7127 21.5545H59.2195L60.3832 24.4743H59.8556L59.5865 23.7777H58.3498L58.0912 24.4743H57.5781ZM58.4708 23.3752H59.4614L58.9567 22.103L58.4708 23.3752Z" fill="white"/>
<path d="M60.8477 24.4743V21.5545H62.5016V21.9821H61.3149V24.4743H60.8477Z" fill="white"/>
<path d="M63.0361 24.4743V21.5545H64.9236V21.9675H63.5033V22.7558H64.7296V23.1458H63.5033V24.0572H64.9361V24.4743H63.0361Z" fill="white"/>
<path d="M65.6318 24.4743V21.5545H66.099V22.7141H67.513V21.5545H67.9802V24.4743H67.513V23.1437H66.099V24.4743H65.6318Z" fill="white"/>
<path d="M70.1122 24.5369C69.8091 24.5369 69.5442 24.4743 69.3176 24.3492C69.0909 24.2241 68.9143 24.0475 68.7878 23.8194C68.6627 23.59 68.6001 23.3224 68.6001 23.0165C68.6001 22.794 68.637 22.5903 68.7107 22.4054C68.7857 22.2191 68.8907 22.0578 69.0256 21.9216C69.1618 21.7853 69.3224 21.6796 69.5073 21.6046C69.6923 21.5295 69.8953 21.4919 70.1163 21.4919C70.3388 21.4919 70.5307 21.5198 70.692 21.5754C70.8546 21.631 70.9964 21.7102 71.1174 21.8131L70.8755 22.1948C70.7837 22.11 70.6767 22.0467 70.5543 22.005C70.432 21.9633 70.2971 21.9424 70.1497 21.9424C69.987 21.9424 69.8403 21.9675 69.7096 22.0175C69.5789 22.0676 69.467 22.1392 69.3739 22.2323C69.2821 22.3241 69.2112 22.436 69.1611 22.5681C69.1125 22.6988 69.0881 22.8469 69.0881 23.0123C69.0881 23.2376 69.1319 23.4301 69.2195 23.59C69.3085 23.7499 69.4337 23.8723 69.5949 23.9571C69.7576 24.0405 69.9495 24.0822 70.1706 24.0822C70.3179 24.0822 70.4598 24.0607 70.596 24.0176C70.7337 23.9731 70.8623 23.9015 70.9818 23.8028L71.1987 24.1969C71.0583 24.3068 70.8977 24.3909 70.717 24.4493C70.5376 24.5077 70.336 24.5369 70.1122 24.5369Z" fill="white"/>
<path d="M72.2864 24.4743V21.9821H71.4647V21.5545H73.5753V21.9821H72.7536V24.4743H72.2864Z" fill="white"/>
<path d="M74.1074 24.4743V21.5545H75.1106C75.3901 21.5545 75.616 21.6171 75.7884 21.7422C75.9608 21.866 76.047 22.0488 76.047 22.2907C76.047 22.3839 76.0248 22.4722 75.9803 22.5556C75.9372 22.6376 75.8809 22.7099 75.8114 22.7725C75.7418 22.8351 75.6695 22.8809 75.5945 22.9101C75.753 22.9588 75.8851 23.0478 75.9907 23.1771C76.0978 23.3064 76.1513 23.4656 76.1513 23.6547C76.1513 23.8146 76.111 23.9564 76.0304 24.0801C75.9497 24.2025 75.835 24.2991 75.6862 24.37C75.5375 24.4396 75.3609 24.4743 75.1565 24.4743H74.1074ZM74.5746 24.1073H75.0772C75.2775 24.1073 75.4262 24.0683 75.5236 23.9905C75.6209 23.9112 75.6695 23.7923 75.6695 23.6338C75.6695 23.4767 75.6202 23.3571 75.5215 23.2751C75.4241 23.1931 75.2733 23.1521 75.0689 23.1521H74.5746V24.1073ZM74.5746 22.8017H75.0376C75.1502 22.8017 75.2476 22.7836 75.3296 22.7475C75.4116 22.7113 75.4756 22.6592 75.5215 22.591C75.5674 22.5229 75.5903 22.4409 75.5903 22.3449C75.5903 22.2087 75.5416 22.1044 75.4443 22.0321C75.3484 21.9584 75.2107 21.9216 75.0314 21.9216H74.5746V22.8017Z" fill="white"/>
<path d="M78.1484 24.5369C77.9287 24.5369 77.725 24.4987 77.5373 24.4222C77.351 24.3443 77.1884 24.2366 77.0493 24.0989C76.9117 23.9613 76.8039 23.8 76.7261 23.6151C76.6496 23.4301 76.6113 23.2299 76.6113 23.0144C76.6113 22.7975 76.6496 22.5966 76.7261 22.4117C76.8039 22.2268 76.9117 22.0655 77.0493 21.9278C77.1884 21.7902 77.351 21.6831 77.5373 21.6067C77.725 21.5302 77.9287 21.4919 78.1484 21.4919C78.3667 21.4919 78.569 21.5309 78.7553 21.6087C78.9416 21.6866 79.1043 21.795 79.2433 21.9341C79.3824 22.0731 79.4901 22.2351 79.5666 22.42C79.6445 22.6036 79.6834 22.8017 79.6834 23.0144C79.6834 23.2299 79.6445 23.4301 79.5666 23.6151C79.4901 23.8 79.3824 23.9613 79.2433 24.0989C79.1043 24.2366 78.9416 24.3443 78.7553 24.4222C78.569 24.4987 78.3667 24.5369 78.1484 24.5369ZM78.1484 24.0947C78.2958 24.0947 78.4328 24.0697 78.5593 24.0197C78.6872 23.9682 78.7984 23.8952 78.893 23.8007C78.9875 23.7047 79.0612 23.5907 79.114 23.4586C79.1683 23.3252 79.1954 23.1771 79.1954 23.0144C79.1954 22.7961 79.1488 22.6063 79.0556 22.4451C78.9639 22.2824 78.8387 22.1565 78.6802 22.0676C78.5217 21.9786 78.3445 21.9341 78.1484 21.9341C78.001 21.9341 77.8634 21.9598 77.7355 22.0113C77.609 22.0613 77.4977 22.1336 77.4018 22.2282C77.3072 22.3227 77.2329 22.4367 77.1786 22.5702C77.1258 22.7023 77.0994 22.8504 77.0994 23.0144C77.0994 23.2327 77.146 23.4232 77.2391 23.5859C77.3323 23.7471 77.4574 23.8723 77.6145 23.9613C77.773 24.0503 77.951 24.0947 78.1484 24.0947Z" fill="white"/>
<path d="M81.3651 24.4743V21.5545H81.8323V22.7141H83.2463V21.5545H83.7135V24.4743H83.2463V23.1437H81.8323V24.4743H81.3651Z" fill="white"/>
<path d="M84.5148 24.4743V21.5545H86.4023V21.9675H84.982V22.7558H86.2083V23.1458H84.982V24.0572H86.4148V24.4743H84.5148Z" fill="white"/>
<path d="M89.0251 24.4743V21.9821H87.8822V22.4305C87.8822 22.785 87.8655 23.0832 87.8322 23.3252C87.7988 23.5671 87.7466 23.7652 87.6757 23.9196C87.6048 24.0725 87.5117 24.1914 87.3963 24.2762C87.2823 24.361 87.1432 24.4229 86.9792 24.4618L86.8123 24.0843C86.9374 24.0551 87.0403 24.0106 87.121 23.9508C87.2016 23.8911 87.2642 23.8021 87.3087 23.6839C87.3546 23.5643 87.3865 23.4037 87.4046 23.2021C87.4241 22.9991 87.4338 22.7419 87.4338 22.4305V21.5545H89.4923V24.4743H89.0251ZM86.8123 25.2168V24.0843L87.1335 24.101L87.3066 24.0447H89.9574V25.2168H89.5173V24.4743H87.2524V25.2168H86.8123Z" fill="white"/>
<path d="M90.4924 24.4743V21.5545H91.4956C91.7751 21.5545 92.001 21.6171 92.1734 21.7422C92.3458 21.866 92.432 22.0488 92.432 22.2907C92.432 22.3839 92.4098 22.4722 92.3653 22.5556C92.3222 22.6376 92.2659 22.7099 92.1964 22.7725C92.1268 22.8351 92.0545 22.8809 91.9795 22.9101C92.138 22.9588 92.2701 23.0478 92.3757 23.1771C92.4828 23.3064 92.5363 23.4656 92.5363 23.6547C92.5363 23.8146 92.496 23.9564 92.4153 24.0801C92.3347 24.2025 92.22 24.2991 92.0712 24.37C91.9225 24.4396 91.7459 24.4743 91.5415 24.4743H90.4924ZM90.9596 24.1073H91.4622C91.6625 24.1073 91.8112 24.0683 91.9086 23.9905C92.0059 23.9112 92.0545 23.7923 92.0545 23.6338C92.0545 23.4767 92.0052 23.3571 91.9065 23.2751C91.8091 23.1931 91.6583 23.1521 91.4539 23.1521H90.9596V24.1073ZM90.9596 22.8017H91.4226C91.5352 22.8017 91.6326 22.7836 91.7146 22.7475C91.7966 22.7113 91.8606 22.6592 91.9065 22.591C91.9523 22.5229 91.9753 22.4409 91.9753 22.3449C91.9753 22.2087 91.9266 22.1044 91.8293 22.0321C91.7334 21.9584 91.5957 21.9216 91.4164 21.9216H90.9596V22.8017Z" fill="white"/>
<path d="M93.1778 24.4743V21.5545H93.6429V23.711L95.1028 21.5545H95.5533V24.4743H95.0903V22.3032L93.6241 24.4743H93.1778Z" fill="white"/>
<path d="M99.4781 24.4743L98.4041 22.9289L99.3592 21.5545H99.8952L98.9338 22.9247L100.039 24.4743H99.4781ZM96.0682 24.4743L97.1673 22.9498L96.2184 21.5545H96.771L97.697 22.931L96.6084 24.4743H96.0682ZM97.8201 24.4743V23.127H97.3321V22.7266H97.8201V21.5545H98.2873V22.7266H98.7732V23.127H98.2873V24.4743H97.8201Z" fill="white"/>
<path d="M100.553 24.4743V21.5545H101.018V23.711L102.478 21.5545H102.928V24.4743H102.465V22.3032L100.999 24.4743H100.553Z" fill="white"/>
<path d="M103.731 24.4743V21.5545H104.183L105.374 23.492L105.193 23.4941L106.34 21.5545H106.784V24.4743H106.327L106.334 22.176L106.423 22.2073L105.431 23.8445H105.089L104.077 22.2073L104.152 22.176L104.158 24.4743H103.731Z" fill="white"/>
<path d="M108.941 24.5369C108.721 24.5369 108.517 24.4987 108.33 24.4222C108.143 24.3443 107.981 24.2366 107.842 24.0989C107.704 23.9613 107.596 23.8 107.518 23.6151C107.442 23.4301 107.404 23.2299 107.404 23.0144C107.404 22.7975 107.442 22.5966 107.518 22.4117C107.596 22.2268 107.704 22.0655 107.842 21.9278C107.981 21.7902 108.143 21.6831 108.33 21.6067C108.517 21.5302 108.721 21.4919 108.941 21.4919C109.159 21.4919 109.361 21.5309 109.548 21.6087C109.734 21.6866 109.897 21.795 110.036 21.9341C110.175 22.0731 110.283 22.2351 110.359 22.42C110.437 22.6036 110.476 22.8017 110.476 23.0144C110.476 23.2299 110.437 23.4301 110.359 23.6151C110.283 23.8 110.175 23.9613 110.036 24.0989C109.897 24.2366 109.734 24.3443 109.548 24.4222C109.361 24.4987 109.159 24.5369 108.941 24.5369ZM108.941 24.0947C109.088 24.0947 109.225 24.0697 109.352 24.0197C109.48 23.9682 109.591 23.8952 109.685 23.8007C109.78 23.7047 109.854 23.5907 109.906 23.4586C109.961 23.3252 109.988 23.1771 109.988 23.0144C109.988 22.7961 109.941 22.6063 109.848 22.4451C109.756 22.2824 109.631 22.1565 109.473 22.0676C109.314 21.9786 109.137 21.9341 108.941 21.9341C108.793 21.9341 108.656 21.9598 108.528 22.0113C108.401 22.0613 108.29 22.1336 108.194 22.2282C108.1 22.3227 108.025 22.4367 107.971 22.5702C107.918 22.7023 107.892 22.8504 107.892 23.0144C107.892 23.2327 107.938 23.4232 108.032 23.5859C108.125 23.7471 108.25 23.8723 108.407 23.9613C108.565 24.0503 108.743 24.0947 108.941 24.0947Z" fill="white"/>
<path d="M112.465 24.5369C112.162 24.5369 111.897 24.4743 111.67 24.3492C111.443 24.2241 111.267 24.0475 111.14 23.8194C111.015 23.59 110.953 23.3224 110.953 23.0165C110.953 22.794 110.99 22.5903 111.063 22.4054C111.138 22.2191 111.243 22.0578 111.378 21.9216C111.514 21.7853 111.675 21.6796 111.86 21.6046C112.045 21.5295 112.248 21.4919 112.469 21.4919C112.691 21.4919 112.883 21.5198 113.045 21.5754C113.207 21.631 113.349 21.7102 113.47 21.8131L113.228 22.1948C113.136 22.11 113.029 22.0467 112.907 22.005C112.785 21.9633 112.65 21.9424 112.502 21.9424C112.34 21.9424 112.193 21.9675 112.062 22.0175C111.932 22.0676 111.82 22.1392 111.726 22.2323C111.635 22.3241 111.564 22.436 111.514 22.5681C111.465 22.6988 111.441 22.8469 111.441 23.0123C111.441 23.2376 111.485 23.4301 111.572 23.59C111.661 23.7499 111.786 23.8723 111.948 23.9571C112.11 24.0405 112.302 24.0822 112.523 24.0822C112.671 24.0822 112.812 24.0607 112.949 24.0176C113.086 23.9731 113.215 23.9015 113.334 23.8028L113.551 24.1969C113.411 24.3068 113.25 24.3909 113.07 24.4493C112.89 24.5077 112.689 24.5369 112.465 24.5369Z" fill="white"/>
<path d="M114.639 24.4743V21.9821H113.817V21.5545H115.928V21.9821H115.106V24.4743H114.639Z" fill="white"/>
<path d="M116.46 24.4743V21.5545H116.925V23.711L118.385 21.5545H118.835V24.4743H118.372V22.3032L116.906 24.4743H116.46Z" fill="white"/>
</svg>
