<svg width="48" height="53" viewBox="0 0 48 53" fill="none" xmlns="http://www.w3.org/2000/svg">
<path fill-rule="evenodd" clip-rule="evenodd" d="M27.9132 47.6826C39.3067 45.8142 48 35.9223 48 24C48 10.7452 37.2548 0 24 0C10.7452 0 0 10.7452 0 24C0 35.5046 8.09484 45.1186 18.8996 47.4569L23.5 53L27.9132 47.6826Z" fill="#3E756F"/>
<path d="M32.6239 24.3274H31.9212V31.4826C31.9212 32.2373 31.3092 32.8499 30.5539 32.8499H26.6366V28.2287C26.6366 27.5007 26.3413 26.8413 25.864 26.364C25.3873 25.8874 24.728 25.592 24 25.592C22.544 25.592 21.3634 26.772 21.3634 28.2287V32.8499H17.4461C16.6908 32.8499 16.0788 32.2373 16.0788 31.4826V24.3274H15.3761C14.0935 24.3274 13.5108 22.7247 14.4941 21.9008L22.2434 15.4062C23.26 14.5549 24.74 14.5549 25.7566 15.4062L33.5059 21.9008C34.4892 22.7247 33.9065 24.3274 32.6239 24.3274Z" fill="white"/>
</svg>
