<svg width="18" height="18" viewBox="0 0 18 18" fill="none" xmlns="http://www.w3.org/2000/svg">
<path d="M9.08893 2.09766C7.11543 2.09766 5.51562 3.69751 5.51562 5.67096C5.51562 7.64447 7.11543 9.24442 9.08893 9.24442C11.0624 9.24442 12.6622 7.64447 12.6622 5.67096C12.6622 3.69751 11.0624 2.09766 9.08893 2.09766ZM9.08893 7.14819C8.27315 7.14819 7.61181 6.48679 7.61181 5.67101C7.61181 4.85524 8.27315 4.19389 9.08893 4.19389C9.90471 4.19389 10.5661 4.85524 10.5661 5.67101C10.5661 6.48679 9.90471 7.14819 9.08893 7.14819Z" fill="white"/>
<path d="M10.3442 12.0865C11.7747 11.795 12.6319 11.1176 12.6773 11.0812C13.0959 10.7455 13.1631 10.134 12.8274 9.71536C12.4918 9.29676 11.8803 9.22951 11.4616 9.56517C11.4528 9.57233 10.5385 10.2737 9.03409 10.2747C7.52976 10.2737 6.59611 9.57233 6.58727 9.56517C6.16856 9.22951 5.55712 9.29676 5.22147 9.71536C4.88576 10.134 4.953 10.7455 5.3716 11.0812C5.41757 11.1181 6.31021 11.8132 7.78084 12.0978L5.73124 14.2398C5.35877 14.626 5.36997 15.2411 5.75625 15.6136C5.94479 15.7954 6.18779 15.8857 6.43058 15.8857C6.68514 15.8857 6.93944 15.7863 7.13008 15.5885L9.03414 13.5602L11.1305 15.6017C11.5104 15.9809 12.1254 15.9803 12.5046 15.6006C12.8837 15.2209 12.8832 14.6057 12.5035 14.2266L10.3442 12.0865Z" fill="white"/>
</svg>
